<svg width="84" height="82" viewBox="0 0 84 82" fill="none" xmlns="http://www.w3.org/2000/svg">
<rect opacity="0.1" x="24.0004" width="60" height="60" rx="30" fill="#00D2FF"/>
<path d="M38.8965 64.1036C38.2704 64.1036 37.7625 64.5879 37.7625 65.1853V70.0021H10.0908V36.8186H37.7625V41.7956C37.7625 42.3931 38.2704 42.8772 38.8965 42.8772C39.5228 42.8772 40.0305 42.3931 40.0305 41.7956V30.0816C40.0305 29.4842 39.5228 29 38.8965 29H8.95688C8.33058 29 7.82291 29.4842 7.82291 30.0816V80.9184C7.82291 81.5156 8.33058 82 8.95688 82H38.8965C39.5228 82 40.0305 81.5156 40.0305 80.9184V65.1853C40.0305 64.5879 39.5229 64.1036 38.8965 64.1036ZM37.7625 31.1633V34.6553H10.0908V31.1633H37.7625ZM10.0908 79.8367V72.1654H37.7625V79.8367H10.0908Z" fill="#00D0FD"/>
<path d="M23.9355 77.5613C24.8821 77.5613 25.6495 76.8285 25.6495 75.9246C25.6495 75.0206 24.8821 74.2878 23.9355 74.2878C22.9889 74.2878 22.2215 75.0206 22.2215 75.9246C22.2215 76.8285 22.9889 77.5613 23.9355 77.5613Z" fill="#00D0FD"/>
<path d="M28.8203 55.6702C28.6151 55.1129 27.9967 54.8275 27.4397 55.0331L26.7472 55.2882C26.6465 55.1278 26.5371 54.973 26.4199 54.8246L26.8921 54.2575C27.2723 53.8011 27.2106 53.1229 26.7542 52.7428C26.2979 52.363 25.6194 52.4252 25.2395 52.8816L24.7685 53.447C24.6019 53.3587 24.4302 53.2783 24.2524 53.2078L24.3774 52.4839C24.4783 51.8985 24.0856 51.3424 23.5005 51.2416C22.9151 51.1408 22.3586 51.5336 22.2576 52.119L22.1328 52.843C21.9417 52.8498 21.7526 52.8681 21.566 52.8957L21.3119 52.2055C21.1067 51.6482 20.4883 51.3629 19.931 51.5683C19.3735 51.7738 19.0881 52.392 19.2933 52.9493L19.5483 53.6415C19.3878 53.7423 19.2329 53.8516 19.0844 53.9691L18.5175 53.4971C18.0615 53.117 17.3828 53.1792 17.0029 53.6356C16.6227 54.0922 16.6844 54.7703 17.1408 55.1503L17.7061 55.6209C17.6177 55.7875 17.5373 55.9594 17.4668 56.1373L16.7428 56.0126C16.1574 55.9118 15.601 56.3047 15.5001 56.89V56.8901C15.3991 57.4755 15.7917 58.0316 16.377 58.1324L17.1008 58.257C17.1077 58.4479 17.126 58.6369 17.1533 58.8234L16.4631 59.0778C15.9056 59.2833 15.6201 59.9015 15.8253 60.4588C16.0305 61.0161 16.6489 61.3016 17.2062 61.096L17.8986 60.8408C17.9993 61.0011 18.1084 61.156 18.2259 61.3044L17.7536 61.8714C17.3737 62.328 17.4354 63.0062 17.8918 63.3861C18.348 63.7661 19.0263 63.7039 19.4065 63.2474L19.8772 62.682C20.0438 62.7703 20.2158 62.8506 20.3936 62.9212L20.2686 63.6452C20.1677 64.2306 20.5602 64.7868 21.1455 64.8875C21.7309 64.9883 22.2873 64.5954 22.3882 64.01L22.5132 63.2861C22.7043 63.2791 22.8932 63.2609 23.0797 63.2334L23.3339 63.9235C23.5391 64.4808 24.1575 64.7663 24.7148 64.5607C25.2723 64.3553 25.5577 63.737 25.3525 63.1798L25.0975 62.4874C25.258 62.3868 25.4128 62.2774 25.5614 62.16L26.1285 62.6319C26.5845 63.012 27.263 62.9498 27.6431 62.4932C28.0231 62.0367 27.9614 61.3585 27.5049 60.9785L26.9397 60.508C27.0281 60.3413 27.1085 60.1695 27.1792 59.9916L27.903 60.1164C28.4883 60.2171 29.0448 59.8243 29.1459 59.2389C29.2469 58.6535 28.8541 58.0973 28.2689 57.9966L27.5449 57.8721C27.5382 57.681 27.52 57.492 27.4925 57.3054L28.1829 57.0512C28.74 56.8458 29.0255 56.2274 28.8203 55.6702ZM25.3525 58.5862C25.0643 60.2568 23.4707 61.3819 21.8002 61.0943C20.1297 60.8068 19.005 59.2137 19.2932 57.5431V57.543C19.5814 55.8724 21.175 54.7474 22.8457 55.0348C24.516 55.3224 25.6408 56.9155 25.3525 58.586V58.5862Z" fill="#00D0FD"/>
<path d="M45.9873 52.2381H44.7375C44.6669 51.8235 44.5596 51.4216 44.4164 51.0366L45.499 50.4112C46.0373 50.1002 46.2217 49.4123 45.9102 48.8745C45.5992 48.3369 44.9107 48.1527 44.3719 48.4637L43.2884 49.0895C43.0234 48.7707 42.7296 48.477 42.4107 48.212L43.0377 47.1257C43.3484 46.5874 43.1634 45.8996 42.6247 45.5894C42.0859 45.2788 41.3976 45.4638 41.0868 46.0019L40.4623 47.0838C40.0781 46.9411 39.6769 46.8339 39.2636 46.7636V45.5119C39.2636 44.8907 38.7592 44.3871 38.1376 44.3871C37.5157 44.3871 37.0114 44.8907 37.0114 45.5119V46.7636C36.598 46.8339 36.1969 46.9411 35.8127 47.0838L35.1882 46.0019C34.8774 45.4638 34.1891 45.2788 33.6503 45.5894C33.1115 45.8996 32.9266 46.5874 33.2373 47.1257L33.8642 48.212C33.5454 48.4769 33.2516 48.7707 32.9866 49.0895L31.9031 48.4637C31.3643 48.1527 30.6758 48.3369 30.3648 48.8745C30.0533 49.4123 30.2376 50.1002 30.776 50.4112L31.8586 51.0366C31.7155 51.4216 31.6081 51.8235 31.5375 52.2381H30.2876C29.6658 52.2381 29.1617 52.7417 29.1617 53.3629C29.1617 53.9842 29.6658 54.4878 30.2876 54.4878H31.5375C31.6081 54.9024 31.7154 55.3043 31.8586 55.6893L30.776 56.3147C30.2376 56.6257 30.0533 57.3136 30.3648 57.8514C30.6758 58.389 31.3643 58.5732 31.9031 58.2622L32.9866 57.6363C33.2516 57.9551 33.5454 58.2488 33.8642 58.5138L33.2373 59.6001C32.9266 60.1383 33.1115 60.8262 33.6503 61.1364C34.1891 61.447 34.8774 61.262 35.1882 60.7239L35.8127 59.642C36.1969 59.7846 36.5981 59.8919 37.0114 59.9622V61.2139C37.0114 61.835 37.5157 62.3387 38.1376 62.3387C38.7592 62.3387 39.2636 61.835 39.2636 61.2139V59.9622C39.677 59.8919 40.0781 59.7847 40.4623 59.642L41.0868 60.7239C41.3976 61.262 42.0859 61.447 42.6247 61.1364C43.1634 60.8262 43.3484 60.1383 43.0377 59.6001L42.4107 58.5138C42.7296 58.2489 43.0234 57.9551 43.2884 57.6363L44.3719 58.2622C44.9107 58.5732 45.5992 58.389 45.9102 57.8514C46.2217 57.3136 46.0373 56.6257 45.499 56.3147L44.4164 55.6893C44.5595 55.3043 44.6669 54.9024 44.7375 54.4878H45.9873C46.6092 54.4878 47.1133 53.9842 47.1133 53.3629C47.1133 52.7417 46.6092 52.2381 45.9873 52.2381ZM42.582 53.3629C42.582 55.8147 40.5883 57.8092 38.1377 57.8092C35.687 57.8092 33.6932 55.8147 33.6932 53.3629C33.6932 50.9112 35.687 48.9167 38.1377 48.9167C40.5883 48.9167 42.582 50.9112 42.582 53.3629Z" fill="#00D0FD"/>
</svg>
