<svg width="339" height="266" viewBox="0 0 339 266" fill="none" xmlns="http://www.w3.org/2000/svg">
<rect width="339" height="266" rx="10" fill="#C9D7EE"/>
<path fill-rule="evenodd" clip-rule="evenodd" d="M304.204 163.051C295.092 163.051 287.639 170.476 287.639 179.551C287.639 196.104 274.04 209.65 257.422 209.65H255.754H89.5289H54.2554C32.6635 209.645 15 192.051 15 170.543C15 149.036 32.6635 131.442 54.2554 131.442H55.2862C59.6182 131.442 63.1625 127.911 63.1625 123.596C63.1625 119.281 59.6182 115.751 55.2862 115.751H50.9542C40.4183 115.751 31.8029 107.169 31.8029 96.6746C31.8029 86.1946 40.3989 77.6178 50.9153 77.5984C50.925 77.5984 69.59 77.5984 69.5998 77.5984C78.7062 77.5984 86.1596 70.1742 86.1596 61.1035C86.1693 44.5456 99.7633 31 116.386 31C145.879 31 241.319 31 270.807 31C292.399 31 310.062 48.5943 310.062 70.1016C310.062 91.6089 292.399 109.203 270.807 109.203C266.475 109.203 262.931 112.734 262.931 117.049C262.931 121.364 266.475 124.894 270.807 124.894H304.204C329.262 124.899 329.262 163.051 304.204 163.051Z" fill="#C9D7EE"/>
<path fill-rule="evenodd" clip-rule="evenodd" d="M302.405 160.286C310.442 160.286 317 153.758 317 145.753C317 137.747 310.446 131.219 302.405 131.219C294.368 131.219 287.814 137.747 287.814 145.753C287.814 153.758 294.368 160.286 302.405 160.286Z" fill="#A0C0D5"/>
<path fill-rule="evenodd" clip-rule="evenodd" d="M56.4676 139.646C61.6991 128.192 71.8022 136.662 74.8701 147.733C77.7776 158.228 81.7449 196.414 88.7607 210.541L85.3817 211.766C70.2172 195.886 49.7679 154.305 56.4676 139.646Z" fill="#63A9BA"/>
<path fill-rule="evenodd" clip-rule="evenodd" d="M86.6263 211.316C67.7085 184.486 62.8562 139.67 62.8416 139.52C62.8125 139.244 63.0118 138.992 63.2889 138.958C63.5661 138.929 63.8189 139.128 63.8529 139.404C63.8724 139.554 68.7246 184.423 87.6036 210.957L86.6263 211.316Z" fill="#80B9C9"/>
<path fill-rule="evenodd" clip-rule="evenodd" d="M51.0028 175.89C41.1573 175.275 43.3063 185.324 49.8359 191.494C54.2555 195.668 68.2336 205.398 78.4923 214.26L85.5616 211.693C76.9997 195.765 61.1789 176.529 51.0028 175.89Z" fill="#3A7F80"/>
<path fill-rule="evenodd" clip-rule="evenodd" d="M83.0382 212.614C69.5609 194.433 48.6545 180.273 48.5718 180.22C48.3919 180.098 48.144 180.142 48.0224 180.321C47.9009 180.5 47.9446 180.747 48.1245 180.873C48.2072 180.931 68.8948 194.942 82.27 212.895L83.0382 212.614Z" fill="#51A5A5"/>
<path fill-rule="evenodd" clip-rule="evenodd" d="M37.9047 208.129H310.514C313.689 208.129 316.286 210.72 316.286 213.878C316.286 217.04 313.689 219.626 310.514 219.626H291.042C289.277 219.626 287.838 221.065 287.838 222.818C287.838 224.576 289.282 226.009 291.042 226.009H298.165C300.368 226.009 302.171 227.806 302.171 230C302.171 232.194 300.368 233.99 298.165 233.99H50.891C48.6885 233.99 46.8847 232.194 46.8847 230C46.8847 227.806 48.6885 226.009 50.891 226.009H56.5017C58.2666 226.009 59.7057 224.571 59.7057 222.818C59.7057 221.06 58.2617 219.626 56.5017 219.626H37.9047C34.7298 219.626 32.1335 217.04 32.1335 213.878C32.1335 210.715 34.7347 208.129 37.9047 208.129ZM40.9094 234C43.0243 234 44.7552 232.276 44.7552 230.169V229.85C44.7552 227.743 43.0243 226.014 40.9094 226.014C38.7944 226.014 37.0636 227.738 37.0636 229.85V230.169C37.0636 232.276 38.7944 234 40.9094 234Z" fill="#020516"/>
<path fill-rule="evenodd" clip-rule="evenodd" d="M191.056 43.8241H161.918C161.471 43.8241 161.111 44.197 161.111 44.6522V63.0795C161.111 63.5347 161.475 63.9125 161.918 63.9125H191.056C191.503 63.9125 191.863 63.5396 191.863 63.0795V44.6571C191.863 44.197 191.498 43.8241 191.056 43.8241Z" fill="#EC6D3B"/>
<path fill-rule="evenodd" clip-rule="evenodd" d="M191.056 43.8241H161.918C161.475 43.8241 161.111 44.197 161.111 44.6522V45.3593L174.544 58.0913C176.713 60.1495 176.071 60.3287 178.191 58.3237L191.868 45.3593V44.6571C191.863 44.197 191.498 43.8241 191.056 43.8241Z" fill="#EC6D3B"/>
<path fill-rule="evenodd" clip-rule="evenodd" d="M161.107 62.2853V63.0795C161.107 63.5348 161.471 63.9125 161.914 63.9125H191.051C191.499 63.9125 191.858 63.5396 191.858 63.0795V62.2853L178.075 50.3088C176.091 48.5847 176.689 48.7397 174.657 50.5074L161.107 62.2853Z" fill="#EC6D3B"/>
<path fill-rule="evenodd" clip-rule="evenodd" d="M161.126 63.2635C161.204 63.6364 161.53 63.9173 161.914 63.9173H191.051C191.435 63.9173 191.761 63.6364 191.844 63.2635L177.924 51.1708C176.13 49.6114 176.675 49.7518 174.837 51.35L161.126 63.2635Z" fill="#F4A63D"/>
<path fill-rule="evenodd" clip-rule="evenodd" d="M182.003 54.7109L177.929 51.1708C176.135 49.6114 176.679 49.7518 174.842 51.35L170.976 54.7109L174.545 58.0961C176.713 60.1544 176.072 60.3335 178.192 58.3286L182.003 54.7109Z" fill="#EC6D3B"/>
<path fill-rule="evenodd" clip-rule="evenodd" d="M191.056 43.8241H161.919C161.651 43.8241 161.413 43.9597 161.267 44.1679L174.842 57.0307C176.679 58.7741 176.14 58.9291 177.929 57.2293L191.713 44.1679C191.562 43.9597 191.324 43.8241 191.056 43.8241Z" fill="#F4A63D"/>
<path fill-rule="evenodd" clip-rule="evenodd" d="M191.032 39.4268C194.007 39.4268 196.419 41.8288 196.419 44.7927C196.419 47.7566 194.007 50.1586 191.032 50.1586C188.056 50.1586 185.645 47.7566 185.645 44.7927C185.645 41.8288 188.056 39.4268 191.032 39.4268Z" fill="#E62952"/>
<path fill-rule="evenodd" clip-rule="evenodd" d="M191.922 47.7954H190.41V43.5578C189.86 44.076 189.209 44.4586 188.46 44.7056V43.3302C188.854 43.2043 189.282 42.9573 189.744 42.5989C190.21 42.2405 190.521 41.8192 190.696 41.3446H191.922V47.7954Z" fill="white"/>
<path fill-rule="evenodd" clip-rule="evenodd" d="M216.09 114.719C216.839 114.719 216.893 113.591 216.12 113.542C215.74 113.538 215.42 113.509 215.045 113.426C214.345 113.295 214.048 114.225 214.661 114.53C214.705 114.55 214.744 114.569 214.792 114.574C215.225 114.671 215.653 114.719 216.09 114.719ZM197.45 55.7424C196.701 55.7424 196.648 56.8708 197.425 56.9193H198.631C199.38 56.9193 199.433 55.7909 198.655 55.7424H197.45ZM202.176 55.7424C201.427 55.7424 201.373 56.8708 202.151 56.9193H203.357C204.106 56.9193 204.159 55.7909 203.381 55.7424H202.176ZM207.052 55.9797C206.955 55.9458 206.848 55.9507 206.746 55.97C206.158 56.125 206.128 56.9144 206.712 57.1081C207.052 57.2098 207.368 57.3406 207.679 57.5101C208.277 57.8491 208.924 57.0258 208.321 56.5221C207.976 56.3042 207.451 56.096 207.052 55.9797ZM210.849 59.3407C210.596 58.7111 209.585 58.9726 209.731 59.6991C209.741 59.7378 209.75 59.7669 209.765 59.8008C209.901 60.1253 210.003 60.4497 210.071 60.7984C210.198 61.4764 211.194 61.428 211.243 60.7209C211.243 60.6725 211.243 60.6338 211.233 60.5902C211.112 60.1204 211.044 59.7959 210.849 59.3407ZM211.326 64.2175C211.326 63.4717 210.193 63.4184 210.144 64.1933V65.3943C210.144 66.1401 211.277 66.1934 211.326 65.4234V64.2175ZM211.326 68.9248C211.326 68.179 210.193 68.1257 210.144 68.8958V70.0968C210.144 70.8426 211.277 70.8959 211.326 70.1259V68.9248ZM211.326 73.6321C211.326 72.8863 210.193 72.833 210.144 73.6031V74.8089C210.144 75.5547 211.277 75.608 211.326 74.8332V73.6321ZM211.326 78.3394C211.326 77.5936 210.193 77.5403 210.144 78.3152V79.5162C210.144 80.2621 211.277 80.3153 211.326 79.5405V78.3394ZM211.326 83.0467C211.326 82.3009 210.193 82.2476 210.144 83.0225V84.2235C210.144 84.9694 211.277 85.0226 211.326 84.2526V83.0467ZM211.326 87.754C211.326 87.0082 210.193 86.9549 210.144 87.7298V88.9308C210.144 89.6767 211.277 89.7299 211.326 88.9551V87.754ZM211.326 92.4613C211.326 91.7155 210.193 91.6622 210.144 92.4323V93.6333C210.144 94.3791 211.277 94.4324 211.326 93.6624V92.4613ZM211.326 97.1686C211.326 96.4228 210.193 96.3695 210.144 97.1444V98.3455C210.144 99.0913 211.277 99.1445 211.326 98.3697V97.1686ZM211.326 101.876C211.326 101.13 210.193 101.077 210.144 101.852V103.053C210.144 103.799 211.277 103.852 211.326 103.077V101.876ZM211.326 106.583C211.326 105.837 210.193 105.784 210.144 106.559V107.76C210.144 108.506 211.277 108.559 211.326 107.789V106.583ZM211.841 110.932C211.783 110.816 211.686 110.729 211.574 110.671C211.053 110.433 210.538 110.966 210.791 111.47C210.99 111.857 211.229 112.225 211.506 112.559C211.71 112.806 212.07 112.84 212.322 112.647C212.59 112.443 212.629 112.061 212.415 111.809C212.191 111.542 211.997 111.237 211.841 110.932Z" fill="black"/>
<path fill-rule="evenodd" clip-rule="evenodd" d="M58.9618 82.7463H84.1127C86.4853 82.7463 88.4253 84.6787 88.4253 87.042V104.757V106.065V117.339C88.4253 117.538 88.3134 117.707 88.1287 117.78C87.9439 117.857 87.7446 117.819 87.6036 117.678L80.2572 110.361H58.9618C56.5892 110.361 54.6493 108.428 54.6493 106.065V87.042C54.6493 84.6787 56.5892 82.7463 58.9618 82.7463Z" fill="#E62952"/>
<path fill-rule="evenodd" clip-rule="evenodd" d="M71.5348 86.7271C74.1263 86.7271 76.5864 87.7441 78.4194 89.565C80.2523 91.3908 81.2685 93.8413 81.2685 96.4177C81.2685 98.999 80.2475 101.449 78.4194 103.27C76.5864 105.096 74.1263 106.108 71.5348 106.108C68.9434 106.108 66.4833 105.091 64.6552 103.27C62.8222 101.445 61.8061 98.9941 61.8061 96.4177C61.8061 93.8364 62.8271 91.3859 64.6552 89.565C66.4881 87.7441 68.9483 86.7271 71.5348 86.7271ZM80.2134 96.9407H76.2412C76.2169 97.9916 76.1099 99.0474 75.9106 100.084C76.9073 100.316 77.9234 100.66 78.8278 101.144C79.6494 99.8852 80.1259 98.442 80.2134 96.9407ZM75.2056 96.9407H72.0551V99.6043C73.0031 99.6285 73.9561 99.7157 74.8945 99.8755C75.0841 98.9118 75.1813 97.9238 75.2056 96.9407ZM71.0195 96.9407H67.8689C67.8932 97.9238 67.9905 98.9118 68.1752 99.8755C69.1136 99.7157 70.0665 99.6285 71.0146 99.6043V96.9407H71.0195ZM66.8285 96.9407H62.8562C62.9438 98.442 63.4202 99.8852 64.2468 101.144C65.1511 100.66 66.1624 100.316 67.1591 100.084C66.9597 99.0522 66.8576 97.9916 66.8285 96.9407ZM62.8562 95.9044H66.8285C66.8479 95.0133 66.9306 94.1173 67.0764 93.2359C66.0262 92.9841 64.9517 92.6112 64.0183 92.0688C63.3327 93.2408 62.9389 94.5532 62.8562 95.9044ZM68.0926 93.449C67.9613 94.2626 67.8884 95.0859 67.8689 95.9044H71.0195V93.7347C70.0374 93.7105 69.0601 93.6185 68.0926 93.449ZM74.982 93.449C74.0193 93.6185 73.0372 93.7105 72.0599 93.7347V95.9044H75.2105C75.1813 95.0859 75.1132 94.2626 74.982 93.449ZM76.2412 95.9044H80.2134C80.1308 94.5483 79.737 93.2408 79.0514 92.0688C78.1179 92.6112 77.0386 92.9841 75.9932 93.2359C76.144 94.1173 76.2218 95.0133 76.2412 95.9044ZM72.0551 87.8554V92.6984C72.9691 92.6741 73.8832 92.587 74.7826 92.432C74.6027 91.6523 74.3596 90.8726 74.029 90.1461C73.6644 89.3422 72.9788 88.1896 72.0551 87.8554ZM72.0551 100.641V104.99C72.9788 104.655 73.6595 103.508 74.029 102.699C74.2964 102.118 74.5006 101.503 74.6659 100.888C73.8054 100.742 72.9302 100.66 72.0551 100.641ZM71.0195 104.99V100.641C70.1443 100.665 69.2692 100.742 68.4086 100.888C68.569 101.508 68.7781 102.118 69.0455 102.699C69.4102 103.508 70.0957 104.655 71.0195 104.99ZM71.0195 92.7032V87.8603C70.0957 88.1945 69.415 89.3422 69.0455 90.151C68.7149 90.8774 68.4718 91.6571 68.2919 92.4368C69.1914 92.5918 70.1054 92.679 71.0195 92.7032ZM64.5968 91.2067C65.4185 91.6717 66.3617 91.9961 67.2758 92.2189C67.4702 91.3666 67.7376 90.5142 68.1023 89.7151C68.3551 89.163 68.6711 88.6013 69.065 88.117C67.6842 88.5238 66.4201 89.2744 65.3942 90.2963C65.1025 90.5868 64.8399 90.8871 64.5968 91.2067ZM75.7988 92.2237C76.7128 92.001 77.656 91.6765 78.4777 91.2116C78.2346 90.8919 77.9721 90.5868 77.6852 90.306C76.6593 89.2841 75.3952 88.5335 74.0144 88.1266C74.4083 88.6158 74.7243 89.1727 74.9771 89.7248C75.3369 90.5142 75.6043 91.3666 75.7988 92.2237ZM78.2006 101.987C77.4129 101.58 76.5427 101.295 75.6821 101.096C75.5022 101.793 75.2688 102.476 74.9722 103.13C74.7194 103.682 74.4034 104.244 74.0096 104.728C75.3904 104.321 76.6545 103.571 77.6803 102.549C77.8651 102.37 78.0401 102.181 78.2006 101.987ZM67.3876 101.091C66.5319 101.29 65.6567 101.58 64.8691 101.982C65.0344 102.176 65.2046 102.365 65.3845 102.544C66.4103 103.566 67.6744 104.316 69.0552 104.723C68.6614 104.234 68.3454 103.672 68.0926 103.125C67.8009 102.476 67.5723 101.788 67.3876 101.091Z" fill="white"/>
<path fill-rule="evenodd" clip-rule="evenodd" d="M306.041 180.045C305.283 179.29 304.238 178.825 303.085 178.825C301.933 178.825 300.888 179.29 300.129 180.045C299.376 180.801 298.904 181.842 298.904 182.99C298.904 184.142 299.371 185.179 300.129 185.934C300.888 186.69 301.933 187.155 303.085 187.155C304.243 187.155 305.283 186.69 306.041 185.934C306.795 185.179 307.267 184.137 307.267 182.99C307.267 181.837 306.8 180.796 306.041 180.045ZM305.142 175.919C305.721 176.084 306.27 176.321 306.781 176.616C307.306 176.917 307.787 177.28 308.22 177.696C308.302 177.774 308.429 177.788 308.526 177.735L310.471 176.616L310.48 176.612C310.592 176.553 310.719 176.539 310.835 176.573C310.957 176.602 311.064 176.679 311.127 176.796L311.137 176.81L312.503 179.169C312.566 179.285 312.581 179.416 312.547 179.532C312.513 179.648 312.44 179.755 312.323 179.822L312.309 179.832L310.383 180.941C310.281 180.999 310.237 181.115 310.262 181.222C310.335 181.508 310.388 181.803 310.422 182.103C310.456 182.399 310.476 182.694 310.476 182.999C310.476 183.304 310.456 183.605 310.422 183.895C310.383 184.196 310.33 184.491 310.262 184.777C310.232 184.898 310.291 185.014 310.398 185.067L312.323 186.176C312.435 186.244 312.513 186.351 312.547 186.467C312.581 186.588 312.566 186.719 312.503 186.83L311.127 189.203C311.059 189.314 310.952 189.392 310.835 189.426C310.714 189.46 310.583 189.445 310.471 189.377L310.456 189.368L308.526 188.259C308.424 188.201 308.302 188.22 308.22 188.297C307.787 188.714 307.306 189.077 306.781 189.377C306.27 189.673 305.716 189.91 305.132 190.075C305.02 190.109 304.948 190.21 304.948 190.322V192.554C304.948 192.685 304.894 192.806 304.807 192.893C304.719 192.981 304.597 193.034 304.466 193.034H301.719C301.588 193.034 301.466 192.981 301.379 192.893C301.291 192.806 301.238 192.685 301.238 192.554V190.322C301.238 190.201 301.155 190.099 301.039 190.075C300.46 189.91 299.911 189.673 299.4 189.377C298.875 189.077 298.394 188.714 297.961 188.297C297.873 188.215 297.737 188.205 297.64 188.268L295.71 189.377C295.598 189.445 295.462 189.455 295.345 189.426C295.224 189.392 295.117 189.319 295.053 189.203L295.044 189.189L293.678 186.83C293.609 186.719 293.6 186.588 293.629 186.467C293.658 186.346 293.736 186.239 293.853 186.176L295.793 185.062C295.895 185.004 295.938 184.888 295.914 184.782C295.841 184.496 295.788 184.2 295.754 183.9C295.72 183.61 295.7 183.309 295.7 183.004C295.7 182.699 295.72 182.399 295.754 182.108C295.792 181.808 295.846 181.513 295.914 181.227C295.943 181.111 295.885 180.99 295.778 180.936L293.853 179.827C293.741 179.764 293.663 179.658 293.629 179.537C293.595 179.416 293.609 179.285 293.678 179.173L293.682 179.159L295.049 176.8C295.117 176.684 295.224 176.607 295.34 176.578C295.457 176.544 295.593 176.558 295.705 176.621L297.65 177.74C297.752 177.798 297.883 177.779 297.961 177.696C298.394 177.285 298.875 176.921 299.395 176.621C299.906 176.326 300.46 176.089 301.043 175.924C301.155 175.89 301.228 175.788 301.228 175.677V173.444C301.228 173.314 301.282 173.192 301.369 173.105C301.457 173.018 301.578 172.965 301.709 172.965H304.456C304.588 172.965 304.709 173.018 304.797 173.105C304.884 173.192 304.938 173.314 304.938 173.444V175.677C304.943 175.788 305.025 175.89 305.142 175.919Z" fill="#AFCADC"/>
<path fill-rule="evenodd" clip-rule="evenodd" d="M300.582 158.625C308.618 158.625 315.177 152.097 315.177 144.092C315.177 136.086 308.623 129.558 300.582 129.558C292.545 129.558 285.991 136.086 285.991 144.092C285.986 152.097 292.545 158.625 300.582 158.625Z" fill="white"/>
<path fill-rule="evenodd" clip-rule="evenodd" d="M300.582 147.874C301.233 147.874 301.851 148.131 302.308 148.586C302.769 149.041 303.022 149.661 303.022 150.305C303.022 150.949 302.765 151.569 302.308 152.024C301.851 152.48 301.233 152.736 300.582 152.736C299.93 152.736 299.313 152.48 298.856 152.024C298.399 151.564 298.141 150.949 298.141 150.305C298.141 149.656 298.399 149.041 298.856 148.586C299.313 148.131 299.93 147.874 300.582 147.874ZM291.256 141.627C290.848 142.058 290.167 142.082 289.73 141.68C289.292 141.278 289.268 140.595 289.676 140.159C291.072 138.668 292.768 137.476 294.645 136.668C296.522 135.854 298.54 135.442 300.582 135.442C302.628 135.442 304.641 135.859 306.518 136.668C308.395 137.481 310.087 138.672 311.487 140.159C311.895 140.595 311.871 141.273 311.433 141.68C310.996 142.082 310.315 142.058 309.907 141.627C308.711 140.353 307.267 139.331 305.662 138.639C304.058 137.946 302.332 137.593 300.582 137.593C298.831 137.593 297.105 137.941 295.501 138.639C293.896 139.331 292.447 140.353 291.256 141.627ZM294.096 144.266C294.927 143.38 295.934 142.673 297.047 142.188C298.165 141.704 299.366 141.462 300.582 141.462C301.797 141.462 302.998 141.704 304.116 142.188C305.234 142.673 306.241 143.38 307.067 144.266C307.476 144.697 308.156 144.726 308.594 144.319C309.032 143.917 309.056 143.234 308.648 142.799C307.617 141.699 306.362 140.818 304.972 140.217C303.586 139.617 302.094 139.307 300.582 139.307C299.069 139.307 297.577 139.612 296.191 140.217C294.801 140.818 293.551 141.699 292.516 142.799C292.107 143.234 292.131 143.913 292.569 144.319C293.007 144.726 293.687 144.702 294.096 144.266ZM297.343 147.293C296.94 147.729 296.254 147.753 295.817 147.346C295.379 146.944 295.355 146.261 295.763 145.825C296.381 145.167 297.13 144.644 297.956 144.285C298.787 143.927 299.677 143.743 300.577 143.743C301.481 143.743 302.371 143.927 303.197 144.285C304.029 144.644 304.777 145.167 305.39 145.825C305.794 146.261 305.769 146.939 305.337 147.346C304.899 147.753 304.218 147.724 303.81 147.293C303.397 146.852 302.896 146.499 302.337 146.256C301.778 146.014 301.18 145.893 300.572 145.893C299.964 145.893 299.366 146.014 298.807 146.256C298.258 146.499 297.757 146.852 297.343 147.293Z" fill="#E62952"/>
<path fill-rule="evenodd" clip-rule="evenodd" d="M68.7684 47.3061C68.0682 46.6087 67.2271 46.047 66.2936 45.6595C65.3942 45.2866 64.4121 45.0832 63.3813 45.0832C62.3506 45.0832 61.3685 45.2866 60.469 45.6595C59.5355 46.047 58.6944 46.6087 57.9943 47.3061C57.2941 48.0035 56.7253 48.8413 56.3412 49.7712C55.9668 50.6671 55.7626 51.6454 55.7626 52.6721C55.7626 53.6988 55.9668 54.677 56.3412 55.573C56.7253 56.5028 57.2941 57.3406 57.9943 58.038C58.6944 58.7354 59.5355 59.302 60.469 59.6846C61.3685 60.0575 62.3506 60.2609 63.3813 60.2609C64.4121 60.2609 65.3942 60.0575 66.2936 59.6846C67.2271 59.2971 68.0682 58.7354 68.7684 58.038C69.4685 57.3406 70.0373 56.5028 70.4214 55.573C70.7958 54.677 71 53.6988 71 52.6721C71 51.6454 70.7958 50.6671 70.4214 49.7712C70.0325 48.8413 69.4685 48.0035 68.7684 47.3061ZM66.0214 46.3085C66.8625 46.6572 67.6258 47.1705 68.2627 47.8049C68.8996 48.4394 69.415 49.1997 69.7651 50.0375C70.1005 50.8463 70.2853 51.7374 70.2853 52.6721C70.2853 53.6067 70.1005 54.4978 69.7651 55.3066C69.415 56.1493 68.8996 56.9048 68.2627 57.5392C67.6258 58.1736 66.8625 58.6869 66.0214 59.0356C65.2094 59.3698 64.3148 59.5587 63.3765 59.5587C62.4381 59.5587 61.5435 59.3746 60.7315 59.0356C59.8856 58.6869 59.1271 58.1736 58.4853 57.5392C57.8484 56.9048 57.333 56.1444 56.983 55.3066C56.6475 54.4978 56.4628 53.6067 56.4628 52.6721C56.4628 51.7374 56.6475 50.8463 56.983 50.0375C57.333 49.1997 57.8484 48.4394 58.4853 47.8049C59.1222 47.1705 59.8856 46.6572 60.7267 46.3085C61.5386 45.9743 62.4332 45.7903 63.3716 45.7903C64.3148 45.7854 65.2094 45.9743 66.0214 46.3085ZM66.8673 40.7246C67.3438 40.8651 67.8154 41.0297 68.2724 41.2234C68.7392 41.422 69.1865 41.6448 69.6192 41.8918C70.0568 42.1436 70.4846 42.4245 70.893 42.7296C71.3014 43.0347 71.6904 43.364 72.055 43.7175C72.1863 43.8434 72.3468 43.9161 72.5121 43.9355C72.6822 43.9548 72.8573 43.9209 73.008 43.8338C74.1262 43.1897 75.3028 42.5552 76.4016 41.8821C76.4551 41.853 76.5086 41.8385 76.5669 41.8336C76.6301 41.824 76.6933 41.8336 76.7517 41.8482C76.8149 41.8675 76.8732 41.8918 76.9219 41.9305C76.9705 41.9692 77.0142 42.0128 77.0434 42.0709C77.8602 43.301 78.677 44.8895 79.4355 46.1923C79.4695 46.2455 79.489 46.3085 79.4938 46.3666C79.5036 46.4296 79.4938 46.4974 79.4792 46.5603C79.4647 46.6233 79.4355 46.6814 79.3966 46.7298C79.3577 46.7782 79.3139 46.8218 79.2556 46.8509C78.2492 47.5144 76.951 48.1778 75.8863 48.788C75.7307 48.8752 75.614 49.0108 75.5508 49.1658C75.5265 49.2191 75.5119 49.2723 75.5022 49.3305L75.4341 49.3547L75.5119 49.6695C75.5702 49.9164 75.6237 50.1634 75.6723 50.4056C75.7161 50.6429 75.755 50.8947 75.7842 51.1562C75.8133 51.4081 75.8376 51.6647 75.8522 51.9117C75.8668 52.1539 75.8765 52.4105 75.8765 52.6769C75.8765 52.9433 75.8668 53.1951 75.8522 53.4421C75.8376 53.6891 75.8133 53.9409 75.7842 54.1976C75.7501 54.4591 75.7161 54.7061 75.6723 54.9434C75.6286 55.1904 75.5751 55.4374 75.5119 55.6843C75.4681 55.8684 75.4876 56.0476 75.5605 56.2074C75.6334 56.3672 75.7599 56.498 75.9203 56.5803L78.9055 58.2947L79.2605 58.4981C79.3188 58.532 79.3626 58.5707 79.4015 58.6191C79.4404 58.6676 79.4695 58.7257 79.4841 58.7886C79.4987 58.8516 79.5036 58.9194 79.4987 58.9824C79.489 59.0405 79.4695 59.1034 79.4403 59.1567L77.233 62.9729L77.0531 63.2829C77.0191 63.341 76.9802 63.3846 76.9316 63.4233C76.883 63.462 76.8246 63.4911 76.7614 63.5056C76.6982 63.525 76.635 63.525 76.5718 63.5202C76.5135 63.5105 76.4551 63.4911 76.3968 63.462C75.3271 62.7937 74.1214 62.1545 73.0177 61.52C72.8621 61.428 72.6871 61.399 72.5267 61.4183C72.3565 61.4377 72.196 61.5152 72.0696 61.6314C71.705 61.9801 71.316 62.3143 70.9076 62.6194C70.5041 62.9245 70.0762 63.2054 69.6386 63.4572C69.2059 63.709 68.7489 63.9318 68.2822 64.1304C67.8251 64.3241 67.3438 64.4936 66.8528 64.634C66.6777 64.6825 66.5367 64.789 66.4346 64.9198C66.3325 65.0554 66.2742 65.2249 66.2742 65.3992V69.2784C66.2742 69.3413 66.2596 69.4043 66.2353 69.4624C66.211 69.5205 66.1721 69.5738 66.1283 69.6174C66.0846 69.661 66.0311 69.6997 65.9727 69.7239C65.9144 69.7481 65.856 69.7578 65.788 69.7578H61.0087C60.9455 69.7578 60.8823 69.7433 60.8239 69.7239C60.7656 69.6997 60.7121 69.661 60.6683 69.6174C60.6246 69.5689 60.5857 69.5157 60.5614 69.4576C60.5371 69.4043 60.5225 69.3413 60.5225 69.2735V65.3944C60.5225 65.2103 60.4593 65.0408 60.3475 64.9004C60.2356 64.7599 60.08 64.6582 59.905 64.6195C59.4285 64.4839 58.9569 64.3144 58.4999 64.1207C58.0332 63.9221 57.5859 63.6994 57.1531 63.4475C56.7156 63.1957 56.2877 62.9148 55.8842 62.6097C55.4758 62.3046 55.0868 61.9753 54.7222 61.6217C54.586 61.491 54.4159 61.4183 54.2408 61.4038C54.0609 61.3844 53.8811 61.4329 53.7303 61.5297L50.395 63.4475C50.3416 63.4814 50.2783 63.5008 50.22 63.5056C50.1568 63.5105 50.0936 63.5056 50.0255 63.4911C49.9623 63.4766 49.904 63.4475 49.8554 63.4088C49.8067 63.37 49.763 63.3264 49.7338 63.2683C48.9413 61.8929 48.1391 60.5224 47.3417 59.147C47.3077 59.0937 47.2882 59.0308 47.2834 58.9727C47.2737 58.9097 47.2785 58.8468 47.298 58.7838C47.3174 58.7208 47.3417 58.6627 47.3806 58.6143C47.4195 58.5659 47.4633 58.5223 47.5168 58.4932L50.891 56.5512C51.0465 56.4641 51.1632 56.3285 51.2264 56.1735C51.2459 56.1347 51.2605 56.0911 51.2702 56.0476L51.3577 56.0282L51.2702 55.6698C51.207 55.4228 51.1535 55.1758 51.1097 54.9337C51.066 54.6964 51.0271 54.4446 50.9931 54.183C50.9639 53.9264 50.9396 53.6745 50.925 53.4276C50.9104 53.1854 50.9007 52.9287 50.9007 52.6624C50.9007 52.4009 50.9104 52.1442 50.925 51.902C50.9396 51.655 50.9639 51.3984 50.9931 51.1465C51.0271 50.885 51.066 50.6332 51.1097 50.3959C51.1535 50.1489 51.207 49.9068 51.2702 49.6598C51.3139 49.4757 51.2945 49.2917 51.2216 49.1367C51.1486 48.9769 51.0222 48.8462 50.8618 48.7638L47.5216 46.8412C47.4681 46.8121 47.4195 46.7686 47.3806 46.7201C47.3417 46.6717 47.3174 46.6136 47.298 46.5506C47.2834 46.4877 47.2785 46.4247 47.2834 46.3618C47.2931 46.2988 47.3126 46.2407 47.3417 46.1874C48.1585 44.9767 48.9753 43.364 49.7338 42.0661C49.7678 42.008 49.8067 41.9644 49.8554 41.9257C49.904 41.8869 49.9623 41.8579 50.0255 41.8433C50.0887 41.8288 50.1568 41.824 50.22 41.8288C50.2783 41.8336 50.3367 41.8579 50.395 41.8869L53.7692 43.8289C53.9248 43.9209 54.1047 43.9548 54.2749 43.9306C54.445 43.9064 54.6055 43.8289 54.7319 43.7078C55.0965 43.3543 55.4855 43.025 55.889 42.7247C56.2926 42.4245 56.7107 42.1436 57.1531 41.8918C57.5907 41.6399 58.0429 41.4172 58.5096 41.2186C58.9715 41.0249 59.448 40.8554 59.9391 40.7149C60.1141 40.6665 60.2551 40.5648 60.3572 40.4292C60.4593 40.2936 60.5176 40.1241 60.5176 39.9498V36.0706C60.5176 36.0076 60.5322 35.9447 60.5517 35.8866C60.576 35.8284 60.6149 35.7752 60.6586 35.7316C60.7024 35.688 60.7559 35.6493 60.8142 35.625C60.8725 35.6008 60.9309 35.5911 60.999 35.5911H65.7783C65.8463 35.5911 65.9047 35.6008 65.963 35.625C66.0214 35.6493 66.0748 35.688 66.1186 35.7316C66.2061 35.8188 66.2596 35.9398 66.2596 36.0706V39.9498C66.2596 40.1338 66.3228 40.3081 66.4298 40.4437C66.5367 40.5793 66.6874 40.681 66.8673 40.7246ZM68.5447 40.5793C69.0358 40.7876 69.5122 41.0249 69.9693 41.2864C70.436 41.5576 70.8833 41.853 71.3112 42.1726C71.739 42.4923 72.1474 42.841 72.5364 43.2139C72.551 43.2284 72.5704 43.2381 72.5899 43.2381C72.6093 43.2381 72.6336 43.2381 72.6482 43.2284C73.781 42.5746 74.9187 41.9257 76.0516 41.267C76.1877 41.1944 76.3336 41.1508 76.4794 41.1363C76.6301 41.1169 76.7809 41.1314 76.9267 41.1702C77.0726 41.2089 77.2184 41.2767 77.3448 41.3736C77.4664 41.4656 77.5685 41.5818 77.6512 41.7174C78.4728 43.0444 79.2556 44.4827 80.0432 45.8387C80.121 45.9792 80.1696 46.1245 80.1891 46.2794C80.2085 46.4344 80.1988 46.5942 80.1599 46.7395C80.121 46.8896 80.053 47.0301 79.9557 47.156C79.8633 47.2771 79.7467 47.3788 79.6105 47.4611C78.5263 48.1294 77.3497 48.7638 76.2363 49.4031C76.2169 49.4128 76.2072 49.4273 76.1974 49.4467C76.1877 49.4661 76.1877 49.4854 76.1926 49.5048L76.2704 49.8196H76.2655C76.2995 49.9697 76.3287 50.1247 76.3579 50.2845C76.4065 50.5509 76.4454 50.8172 76.4794 51.0787C76.5086 51.3354 76.5329 51.6018 76.5524 51.873C76.5669 52.149 76.5767 52.4154 76.5767 52.6769C76.5767 52.9384 76.5669 53.2048 76.5524 53.4808C76.5378 53.752 76.5135 54.0184 76.4794 54.2799C76.4454 54.5414 76.4065 54.8029 76.3579 55.0741C76.3093 55.3405 76.2509 55.602 76.1877 55.8538C76.1828 55.8732 76.1877 55.8974 76.1926 55.9168C76.2023 55.9362 76.2169 55.9555 76.2363 55.9604C77.4761 56.619 78.7354 57.3939 79.9606 58.101L79.9168 58.1542L79.9557 58.2027C80.053 58.3286 80.121 58.469 80.1599 58.6191C80.1988 58.7644 80.2085 58.9242 80.1891 59.0792C80.1696 59.2293 80.121 59.3795 80.0432 59.5151L77.4761 63.9463L77.4275 63.9173C77.4032 63.9415 77.374 63.9609 77.3497 63.9851C77.2233 64.0819 77.0823 64.1497 76.9316 64.1885C76.7857 64.2272 76.6253 64.2369 76.4697 64.2175C76.3238 64.1982 76.178 64.1546 76.0418 64.0771C74.9187 63.4814 73.7616 62.7647 72.6531 62.1254C72.6385 62.1157 72.619 62.1157 72.5947 62.1157C72.5753 62.1157 72.5558 62.1254 72.5412 62.1399C72.1571 62.5128 71.7439 62.8567 71.316 63.1812C70.8882 63.5008 70.4409 63.7962 69.9741 64.0674C69.5122 64.3338 69.0309 64.5711 68.5399 64.7793C68.0488 64.9876 67.5431 65.1667 67.0278 65.312C67.0083 65.3169 66.9889 65.3314 66.9792 65.3459C66.9646 65.3653 66.9597 65.3847 66.9597 65.4041V69.2832C66.9597 69.443 66.9257 69.5932 66.8673 69.7336C66.809 69.8789 66.7166 70.0097 66.6097 70.1162C66.5027 70.2227 66.3666 70.3148 66.2256 70.3729C66.0846 70.431 65.9338 70.4649 65.7734 70.4649H60.9941C60.8336 70.4649 60.6829 70.431 60.5419 70.3729C60.3961 70.3148 60.2648 70.2227 60.1578 70.1162C60.0509 70.0097 59.9585 69.8789 59.9002 69.7336C59.8418 69.5932 59.8078 69.443 59.8078 69.2832V65.4041C59.8078 65.3798 59.8029 65.3605 59.7883 65.3459C59.7786 65.3314 59.7592 65.3169 59.7348 65.312L59.7203 65.3072C59.2 65.1571 58.6993 64.9827 58.2179 64.7745C57.7269 64.5662 57.2504 64.3289 56.7934 64.0674C56.3266 63.7962 55.8793 63.5008 55.4515 63.1812C55.0236 62.8615 54.6152 62.5128 54.2263 62.1399C54.2117 62.1254 54.1922 62.1157 54.1728 62.1157C54.1533 62.1157 54.129 62.1206 54.1096 62.1302L50.7354 64.0674C50.5944 64.1449 50.4485 64.1933 50.2978 64.2127C50.1422 64.2321 49.9818 64.2224 49.8359 64.1836C49.69 64.1449 49.5442 64.0771 49.4178 63.9802C49.3011 63.8931 49.199 63.7768 49.1163 63.6461C48.2315 62.2271 47.3952 60.6725 46.5492 59.2148L46.593 59.1858C46.5833 59.147 46.5784 59.1131 46.5735 59.0744C46.5541 58.9194 46.5638 58.7644 46.6027 58.6143C46.6416 58.469 46.7097 58.3237 46.8069 58.1978C46.8993 58.0767 47.016 57.975 47.1521 57.8927L50.5263 55.9507C50.5458 55.941 50.5555 55.9265 50.5652 55.9071C50.5749 55.8877 50.5749 55.8684 50.5701 55.8442L50.4825 55.4906H50.4874C50.4582 55.3502 50.4291 55.2097 50.3999 55.0693C50.3513 54.8029 50.3124 54.5366 50.2783 54.2751C50.2492 54.0184 50.2249 53.752 50.2054 53.476C50.1908 53.1999 50.1811 52.9336 50.1811 52.6721C50.1811 52.4105 50.1908 52.1442 50.2054 51.8681C50.22 51.5969 50.2443 51.3306 50.2783 51.0691C50.3124 50.8124 50.3513 50.546 50.3999 50.2748C50.4485 50.0085 50.5069 49.7469 50.5701 49.4951C50.5749 49.4757 50.5701 49.4515 50.5652 49.4322C50.5555 49.4128 50.5409 49.3983 50.5214 49.3886L47.1521 47.4514C47.0111 47.3739 46.8944 47.2674 46.8069 47.1463C46.7097 47.0204 46.6416 46.8799 46.6027 46.7298C46.5638 46.5845 46.5541 46.4247 46.5735 46.2697C46.593 46.1245 46.6416 45.9792 46.7145 45.8436C47.5168 44.3616 48.4357 42.87 49.2865 41.4026L49.3351 41.4317C49.3594 41.4075 49.3886 41.3881 49.4129 41.3687C49.5393 41.2719 49.6803 41.2041 49.831 41.1653C49.9818 41.1266 50.1373 41.112 50.2929 41.1363C50.4436 41.1556 50.5944 41.2041 50.7305 41.2815L50.9785 41.4268L54.1096 43.2284C54.129 43.2381 54.1485 43.2429 54.1679 43.2381C54.1874 43.2332 54.2068 43.2236 54.2214 43.2139L54.2311 43.2042C54.6152 42.8361 55.0236 42.4923 55.4515 42.1678C55.8793 41.8482 56.3266 41.5528 56.7836 41.2864C57.2455 41.02 57.7269 40.7827 58.2179 40.5745C58.709 40.3662 59.2146 40.1871 59.73 40.0418C59.7494 40.0369 59.7689 40.0224 59.7786 40.0079C59.7932 39.9885 59.7981 39.9691 59.7981 39.9498V36.0706C59.7981 35.9108 59.8321 35.7606 59.8904 35.6202C59.9488 35.4749 60.0412 35.3441 60.1481 35.2376C60.2599 35.1311 60.3912 35.039 60.5322 34.9809C60.6732 34.9228 60.8239 34.8889 60.9844 34.8889H65.7637C65.9241 34.8889 66.0748 34.9228 66.2158 34.9809C66.3617 35.039 66.493 35.1311 66.6048 35.2376C66.8187 35.4507 66.9549 35.7461 66.9549 36.0754V39.9546C66.9549 39.9788 66.9646 39.9982 66.9743 40.0127C66.984 40.0272 67.0035 40.0418 67.0278 40.0466L67.0424 40.0515C67.5626 40.1967 68.0634 40.3711 68.5447 40.5793Z" fill="#CEE3F0"/>
<path fill-rule="evenodd" clip-rule="evenodd" d="M198.33 87.1582C199.292 87.1582 200.08 86.3736 200.08 85.4147C200.08 84.4558 199.292 83.6713 198.33 83.6713C197.367 83.6713 196.579 84.4558 196.579 85.4147C196.579 86.3784 197.367 87.1582 198.33 87.1582Z" fill="white"/>
<path fill-rule="evenodd" clip-rule="evenodd" d="M38.2936 156.412C37.5352 155.656 36.4898 155.191 35.3376 155.191C34.1853 155.191 33.14 155.656 32.3815 156.412C31.623 157.167 31.1563 158.208 31.1563 159.356C31.1563 160.504 31.623 161.545 32.3815 162.301C33.1351 163.056 34.1804 163.521 35.3376 163.521C36.4898 163.521 37.5352 163.056 38.2936 162.301C39.0472 161.55 39.5188 160.504 39.5188 159.356C39.5188 158.204 39.0472 157.162 38.2936 156.412ZM37.3893 152.286C37.9679 152.45 38.5173 152.688 39.0278 152.978C39.5529 153.278 40.0342 153.642 40.4669 154.058C40.5496 154.14 40.676 154.15 40.7732 154.097L42.718 152.978L42.7277 152.973C42.8396 152.915 42.966 152.901 43.0827 152.935C43.2042 152.968 43.3112 153.041 43.3744 153.157L43.3841 153.172L44.7503 155.53C44.8135 155.642 44.8281 155.777 44.7989 155.894C44.7649 156.015 44.692 156.121 44.5753 156.184L44.5607 156.194L42.6354 157.303C42.5333 157.361 42.4895 157.477 42.5138 157.584C42.5867 157.869 42.6402 158.165 42.6742 158.465C42.7083 158.756 42.7277 159.056 42.7277 159.361C42.7277 159.666 42.7083 159.966 42.6742 160.257C42.6354 160.557 42.5819 160.853 42.5138 161.138C42.4846 161.255 42.543 161.376 42.6499 161.429L44.5753 162.538C44.692 162.606 44.7698 162.712 44.7989 162.829C44.8281 162.95 44.8184 163.08 44.7503 163.192L43.3744 165.565C43.3112 165.681 43.2042 165.754 43.0827 165.788C42.9611 165.821 42.8298 165.807 42.718 165.739L42.7034 165.734L40.7732 164.625C40.6711 164.567 40.5496 164.587 40.4669 164.664C40.0342 165.081 39.5529 165.444 39.0278 165.744C38.5173 166.039 37.963 166.277 37.3796 166.441C37.2678 166.475 37.1948 166.577 37.1948 166.688V168.921C37.1948 169.052 37.1413 169.173 37.0538 169.26C36.9663 169.347 36.8448 169.4 36.7135 169.4H33.9616C33.8304 169.4 33.7088 169.347 33.6213 169.26C33.5338 169.173 33.4803 169.057 33.4803 168.921V166.688C33.4803 166.567 33.3976 166.466 33.281 166.441C32.7024 166.277 32.153 166.039 31.6425 165.749C31.1222 165.449 30.636 165.085 30.2033 164.669C30.1158 164.587 29.9797 164.577 29.8824 164.64L27.9522 165.749C27.8404 165.817 27.7092 165.826 27.5876 165.797C27.4661 165.763 27.3591 165.691 27.2959 165.575L27.2862 165.56L25.92 163.201C25.8519 163.09 25.8422 162.959 25.8713 162.838C25.9054 162.717 25.9783 162.611 26.095 162.548L28.0349 161.429C28.137 161.371 28.1808 161.255 28.1565 161.148C28.0884 160.862 28.03 160.567 27.996 160.267C27.962 159.976 27.9425 159.676 27.9425 159.371C27.9425 159.066 27.962 158.765 27.996 158.475C28.03 158.175 28.0884 157.879 28.1565 157.598C28.1856 157.477 28.1273 157.361 28.0203 157.308L26.095 156.199C25.9832 156.136 25.9054 156.024 25.8713 155.908C25.8373 155.787 25.8519 155.656 25.92 155.545L25.9297 155.53L27.2959 153.172C27.364 153.056 27.4709 152.983 27.5876 152.949C27.7092 152.915 27.8404 152.93 27.9522 152.997L29.8922 154.116C29.9943 154.174 30.1255 154.155 30.2033 154.073C30.636 153.661 31.1125 153.298 31.6376 152.997C32.1481 152.702 32.7024 152.465 33.2858 152.3C33.3976 152.266 33.4706 152.164 33.4706 152.053V149.821C33.4706 149.69 33.524 149.569 33.6116 149.482C33.6991 149.394 33.8206 149.341 33.9519 149.341H36.6989C36.8302 149.341 36.9517 149.394 37.0392 149.482C37.1268 149.569 37.1802 149.69 37.1802 149.821V152.053C37.1948 152.155 37.2775 152.256 37.3893 152.286Z" fill="#AFCADC"/>
<path fill-rule="evenodd" clip-rule="evenodd" d="M111.51 62.6191H113.532C114.019 62.6191 114.417 62.222 114.417 61.7377V59.7231C114.417 59.2388 114.019 58.8417 113.532 58.8417H111.51C111.024 58.8417 110.625 59.2388 110.625 59.7231V61.7377C110.625 62.222 111.024 62.6191 111.51 62.6191Z" fill="#7FA6C2"/>
<path fill-rule="evenodd" clip-rule="evenodd" d="M118.521 62.6191H120.543C121.03 62.6191 121.428 62.222 121.428 61.7377V59.7231C121.428 59.2388 121.03 58.8417 120.543 58.8417H118.521C118.035 58.8417 117.636 59.2388 117.636 59.7231V61.7377C117.636 62.222 118.035 62.6191 118.521 62.6191Z" fill="white"/>
<path fill-rule="evenodd" clip-rule="evenodd" d="M125.532 62.6191H127.554C128.04 62.6191 128.439 62.222 128.439 61.7377V59.7231C128.439 59.2388 128.04 58.8417 127.554 58.8417H125.532C125.045 58.8417 124.647 59.2388 124.647 59.7231V61.7377C124.647 62.222 125.041 62.6191 125.532 62.6191Z" fill="#7FA6C2"/>
<path fill-rule="evenodd" clip-rule="evenodd" d="M132.538 62.6191H134.56C135.047 62.6191 135.445 62.222 135.445 61.7377V59.7231C135.445 59.2388 135.047 58.8417 134.56 58.8417H132.538C132.052 58.8417 131.653 59.2388 131.653 59.7231V61.7377C131.658 62.222 132.052 62.6191 132.538 62.6191Z" fill="white"/>
<path fill-rule="evenodd" clip-rule="evenodd" d="M139.549 62.6191H141.571C142.058 62.6191 142.456 62.222 142.456 61.7377V59.7231C142.456 59.2388 142.058 58.8417 141.571 58.8417H139.549C139.063 58.8417 138.664 59.2388 138.664 59.7231V61.7377C138.664 62.222 139.063 62.6191 139.549 62.6191Z" fill="#7FA6C2"/>
<path fill-rule="evenodd" clip-rule="evenodd" d="M125.785 55.0062H127.807C128.293 55.0062 128.692 54.6091 128.692 54.1248V52.1102C128.692 51.6259 128.293 51.2288 127.807 51.2288H125.785C125.298 51.2288 124.9 51.6259 124.9 52.1102V54.1248C124.9 54.6091 125.298 55.0062 125.785 55.0062Z" fill="white"/>
<path fill-rule="evenodd" clip-rule="evenodd" d="M132.795 55.0062H134.818C135.304 55.0062 135.703 54.6091 135.703 54.1248V52.1102C135.703 51.6259 135.304 51.2288 134.818 51.2288H132.795C132.309 51.2288 131.911 51.6259 131.911 52.1102V54.1248C131.911 54.6091 132.309 55.0062 132.795 55.0062Z" fill="#7FA6C2"/>
<path fill-rule="evenodd" clip-rule="evenodd" d="M139.806 55.0062H141.829C142.315 55.0062 142.714 54.6091 142.714 54.1248V52.1102C142.714 51.6259 142.315 51.2288 141.829 51.2288H139.806C139.32 51.2288 138.922 51.6259 138.922 52.1102V54.1248C138.922 54.6091 139.315 55.0062 139.806 55.0062Z" fill="white"/>
<path fill-rule="evenodd" clip-rule="evenodd" d="M289.72 56.585C289.72 56.3284 289.929 56.1201 290.187 56.1201C290.444 56.1201 290.653 56.3284 290.653 56.585V58.6772C290.653 58.9338 290.444 59.1421 290.187 59.1421C289.929 59.1421 289.72 58.9338 289.72 58.6772V56.585ZM286.535 58.2801C286.351 58.096 286.351 57.8054 286.535 57.6214C286.72 57.4374 287.012 57.4374 287.197 57.6214L288.679 59.0985C288.864 59.2825 288.864 59.5731 288.679 59.7571C288.495 59.9412 288.203 59.9412 288.018 59.7571L286.535 58.2801ZM285.495 61.7234C285.237 61.7234 285.028 61.5151 285.028 61.2584C285.028 61.0018 285.237 60.7935 285.495 60.7935H287.595C287.853 60.7935 288.062 61.0018 288.062 61.2584C288.062 61.5151 287.853 61.7234 287.595 61.7234H285.495ZM287.197 64.8906C287.012 65.0746 286.72 65.0746 286.535 64.8906C286.351 64.7066 286.351 64.416 286.535 64.232L288.018 62.7549C288.203 62.5757 288.495 62.5757 288.679 62.7549C288.864 62.9389 288.864 63.2295 288.679 63.4135L287.197 64.8906ZM290.653 65.9318C290.653 66.1885 290.444 66.3968 290.187 66.3968C289.929 66.3968 289.72 66.1885 289.72 65.9318V63.8397C289.72 63.583 289.929 63.3748 290.187 63.3748C290.444 63.3748 290.653 63.583 290.653 63.8397V65.9318ZM293.833 64.232C294.018 64.416 294.018 64.7066 293.833 64.8906C293.648 65.0746 293.357 65.0746 293.172 64.8906L291.689 63.4135C291.504 63.2343 291.504 62.9389 291.689 62.7549C291.874 62.5757 292.165 62.5757 292.35 62.7549L293.833 64.232ZM294.878 60.7935C295.136 60.7935 295.345 61.0018 295.345 61.2584C295.345 61.5151 295.136 61.7234 294.878 61.7234H292.778C292.52 61.7234 292.311 61.5151 292.311 61.2584C292.311 61.0018 292.52 60.7935 292.778 60.7935H294.878ZM293.172 57.6263C293.357 57.4422 293.648 57.4422 293.833 57.6263C294.018 57.8103 294.018 58.1009 293.833 58.2849L292.35 59.762C292.165 59.946 291.874 59.946 291.689 59.762C291.504 59.578 291.504 59.2874 291.689 59.1033L293.172 57.6263Z" fill="#7FA6C2"/>
<path fill-rule="evenodd" clip-rule="evenodd" d="M32.9844 183.619C32.9844 183.363 33.1934 183.154 33.4511 183.154C33.7088 183.154 33.9179 183.363 33.9179 183.619V185.711C33.9179 185.968 33.7088 186.176 33.4511 186.176C33.1934 186.176 32.9844 185.968 32.9844 185.711V183.619ZM29.8046 185.314C29.6247 185.13 29.6247 184.84 29.8046 184.656C29.9894 184.472 30.2811 184.472 30.4659 184.656L31.9488 186.133C32.1287 186.317 32.1287 186.607 31.9488 186.791C31.764 186.975 31.4723 186.975 31.2875 186.791L29.8046 185.314ZM28.7593 188.758C28.5016 188.758 28.2926 188.549 28.2926 188.293C28.2926 188.036 28.5016 187.828 28.7593 187.828H30.8597C31.1174 187.828 31.3264 188.036 31.3264 188.293C31.3264 188.549 31.1174 188.758 30.8597 188.758H28.7593ZM30.461 191.925C30.2762 192.109 29.9845 192.109 29.7998 191.925C29.6199 191.741 29.6199 191.45 29.7998 191.266L31.2827 189.789C31.4674 189.61 31.7591 189.61 31.9439 189.789C32.1238 189.973 32.1238 190.264 31.9439 190.448L30.461 191.925ZM33.9179 192.966C33.9179 193.223 33.7088 193.431 33.4511 193.431C33.1934 193.431 32.9844 193.223 32.9844 192.966V190.874C32.9844 190.617 33.1934 190.409 33.4511 190.409C33.7088 190.409 33.9179 190.617 33.9179 190.874V192.966ZM37.0976 191.266C37.2775 191.45 37.2775 191.741 37.0976 191.925C36.9128 192.109 36.6211 192.109 36.4363 191.925L34.9535 190.448C34.7736 190.269 34.7736 189.973 34.9535 189.789C35.1382 189.61 35.4299 189.61 35.6147 189.789L37.0976 191.266ZM38.1429 187.828C38.4006 187.828 38.6096 188.036 38.6096 188.293C38.6096 188.549 38.4006 188.758 38.1429 188.758H36.0425C35.7848 188.758 35.5758 188.549 35.5758 188.293C35.5758 188.036 35.7848 187.828 36.0425 187.828H38.1429ZM36.4363 184.66C36.6211 184.476 36.9128 184.476 37.0976 184.66C37.2775 184.844 37.2775 185.135 37.0976 185.319L35.6147 186.796C35.4299 186.98 35.1382 186.98 34.9535 186.796C34.7736 186.612 34.7736 186.322 34.9535 186.138L36.4363 184.66Z" fill="#7FA6C2"/>
<path fill-rule="evenodd" clip-rule="evenodd" d="M71.632 121.199C72.5947 121.199 73.3823 120.414 73.3823 119.455C73.3823 118.497 72.5947 117.712 71.632 117.712C70.6694 117.712 69.8817 118.497 69.8817 119.455C69.8817 120.419 70.6645 121.199 71.632 121.199Z" fill="white"/>
<path fill-rule="evenodd" clip-rule="evenodd" d="M104.97 41.4945C105.933 41.4945 106.721 40.7099 106.721 39.751C106.721 38.7921 105.933 38.0076 104.97 38.0076C104.008 38.0076 103.22 38.7921 103.22 39.751C103.22 40.7099 104.008 41.4945 104.97 41.4945Z" fill="white"/>
<path fill-rule="evenodd" clip-rule="evenodd" d="M218.337 43.1555C219.299 43.1555 220.087 42.3709 220.087 41.412C220.087 40.4531 219.299 39.6686 218.337 39.6686C217.374 39.6686 216.586 40.4531 216.586 41.412C216.586 42.3709 217.374 43.1555 218.337 43.1555Z" fill="white"/>
<path fill-rule="evenodd" clip-rule="evenodd" d="M292.52 90.4805C293.483 90.4805 294.271 89.696 294.271 88.7371C294.271 87.7782 293.483 86.9937 292.52 86.9937C291.558 86.9937 290.77 87.7782 290.77 88.7371C290.77 89.696 291.558 90.4805 292.52 90.4805Z" fill="white"/>
<path fill-rule="evenodd" clip-rule="evenodd" d="M278.353 139.466C279.315 139.466 280.103 138.682 280.103 137.723C280.103 136.764 279.315 135.98 278.353 135.98C277.39 135.98 276.602 136.764 276.602 137.723C276.602 138.687 277.385 139.466 278.353 139.466Z" fill="white"/>
<path fill-rule="evenodd" clip-rule="evenodd" d="M78.0742 208.129H213.285V130.715L145.68 91.3135L78.0742 130.715V208.129Z" fill="#DE9C00"/>
<path fill-rule="evenodd" clip-rule="evenodd" d="M101.29 186.685H190.069C192.33 186.685 194.182 184.84 194.182 182.588V105.111L169.907 79.6324H101.29C99.0292 79.6324 97.1768 81.4727 97.1768 83.7295V182.593C97.1768 184.84 99.0292 186.685 101.29 186.685Z" fill="white"/>
<path fill-rule="evenodd" clip-rule="evenodd" d="M101.29 188.98H190.069C192.33 188.98 194.182 187.135 194.182 184.883V141.472L158.272 166.737L145.68 175.599L133.087 166.737L97.1768 141.472V184.883C97.1768 187.14 99.0292 188.98 101.29 188.98Z" fill="#E5E5E6"/>
<path fill-rule="evenodd" clip-rule="evenodd" d="M194.183 109.053V105.111L173.762 83.6763V104.956C173.762 107.208 175.615 109.053 177.876 109.053H194.183Z" fill="#F0F1F1"/>
<path fill-rule="evenodd" clip-rule="evenodd" d="M169.907 79.6324V101.014C169.907 103.266 171.759 105.111 174.02 105.111H194.183L169.907 79.6324Z" fill="#A3C1D5"/>
<path fill-rule="evenodd" clip-rule="evenodd" d="M78.0742 130.715L133.087 169.42L78.0742 208.129V130.715Z" fill="#FBC900"/>
<path fill-rule="evenodd" clip-rule="evenodd" d="M213.285 130.715L158.272 169.42L213.285 208.129V130.715Z" fill="#FBC900"/>
<path fill-rule="evenodd" clip-rule="evenodd" d="M213.285 208.129L158.272 169.425L145.68 178.282L133.087 169.42L78.0742 208.129H213.285Z" fill="#F6AF00"/>
<path fill-rule="evenodd" clip-rule="evenodd" d="M104.241 113.276H187.118C187.556 113.276 187.911 113.63 187.911 114.065C187.911 114.501 187.556 114.855 187.118 114.855H104.241C103.804 114.855 103.449 114.501 103.449 114.065C103.449 113.634 103.804 113.276 104.241 113.276Z" fill="#DBDCDC"/>
<path fill-rule="evenodd" clip-rule="evenodd" d="M104.241 120.022H187.118C187.556 120.022 187.911 120.376 187.911 120.812C187.911 121.248 187.556 121.601 187.118 121.601H104.241C103.804 121.601 103.449 121.248 103.449 120.812C103.449 120.381 103.804 120.022 104.241 120.022Z" fill="#DBDCDC"/>
<path fill-rule="evenodd" clip-rule="evenodd" d="M104.241 126.768H187.118C187.556 126.768 187.911 127.122 187.911 127.558C187.911 127.994 187.556 128.347 187.118 128.347H104.241C103.804 128.347 103.449 127.989 103.449 127.558C103.449 127.122 103.804 126.768 104.241 126.768Z" fill="#DBDCDC"/>
<path fill-rule="evenodd" clip-rule="evenodd" d="M104.241 133.515H187.118C187.556 133.515 187.911 133.868 187.911 134.304C187.911 134.74 187.556 135.093 187.118 135.093H104.241C103.804 135.093 103.449 134.74 103.449 134.304C103.449 133.868 103.804 133.515 104.241 133.515Z" fill="#DBDCDC"/>
<path fill-rule="evenodd" clip-rule="evenodd" d="M104.241 140.261H187.118C187.556 140.261 187.911 140.614 187.911 141.05C187.911 141.486 187.556 141.84 187.118 141.84H104.241C103.804 141.84 103.449 141.486 103.449 141.05C103.449 140.614 103.804 140.261 104.241 140.261Z" fill="#DBDCDC"/>
<path fill-rule="evenodd" clip-rule="evenodd" d="M105.505 101.939H147.367C147.804 101.939 148.159 102.292 148.159 102.728C148.159 103.164 147.799 103.518 147.367 103.518H105.505C105.068 103.518 104.713 103.164 104.713 102.728C104.713 102.292 105.068 101.939 105.505 101.939Z" fill="#DBDCDC"/>
<path fill-rule="evenodd" clip-rule="evenodd" d="M157.514 101.939H151.806C151.368 101.939 151.013 102.292 151.013 102.728C151.013 103.164 151.368 103.518 151.806 103.518H157.514C157.951 103.518 158.306 103.164 158.306 102.728C158.306 102.292 157.951 101.939 157.514 101.939Z" fill="#DBDCDC"/>
<path fill-rule="evenodd" clip-rule="evenodd" d="M105.505 96.5439H152.992C153.43 96.5439 153.785 96.8975 153.785 97.3333C153.785 97.7692 153.425 98.1227 152.992 98.1227H105.505C105.068 98.1227 104.713 97.7692 104.713 97.3333C104.713 96.8975 105.068 96.5439 105.505 96.5439Z" fill="#DBDCDC"/>
<path fill-rule="evenodd" clip-rule="evenodd" d="M105.987 87.3181H114.305C115.006 87.3181 115.584 87.8896 115.584 88.5918C115.584 89.294 115.01 89.8655 114.305 89.8655H105.987C105.282 89.8655 104.708 89.294 104.708 88.5918C104.713 87.8896 105.287 87.3181 105.987 87.3181Z" fill="#DBDCDC"/>
<path fill-rule="evenodd" clip-rule="evenodd" d="M119.177 87.3181H139.588C140.288 87.3181 140.861 87.8896 140.861 88.5918C140.861 89.294 140.288 89.8655 139.588 89.8655H119.177C118.477 89.8655 117.898 89.294 117.898 88.5918C117.903 87.8896 118.477 87.3181 119.177 87.3181Z" fill="#DBDCDC"/>
<path fill-rule="evenodd" clip-rule="evenodd" d="M279.223 149.598H207.504C205.511 149.598 203.877 151.375 203.877 153.545V204.114C203.877 206.284 205.511 208.061 207.504 208.061H279.223C281.221 208.061 282.85 206.284 282.85 204.114V153.545C282.85 151.375 281.216 149.598 279.223 149.598Z" fill="#915E40"/>
<path fill-rule="evenodd" clip-rule="evenodd" d="M273.496 153.661C270.53 153.661 268.123 156.281 268.123 159.506C268.123 162.736 270.53 165.352 273.496 165.352C276.461 165.352 278.868 162.736 278.868 159.506C278.868 156.281 276.466 153.661 273.496 153.661Z" fill="white"/>
<path fill-rule="evenodd" clip-rule="evenodd" d="M264.637 155.521H248.87C248.296 155.521 247.824 156.034 247.824 156.659C247.824 157.283 248.296 157.797 248.87 157.797H264.637C265.211 157.797 265.682 157.283 265.682 156.659C265.682 156.034 265.211 155.521 264.637 155.521Z" fill="white"/>
<path fill-rule="evenodd" clip-rule="evenodd" d="M261.205 160.683H253.075C252.502 160.683 252.03 161.196 252.03 161.821C252.03 162.446 252.502 162.959 253.075 162.959H261.205C261.778 162.959 262.25 162.446 262.25 161.821C262.25 161.196 261.778 160.683 261.205 160.683Z" fill="white"/>
<path fill-rule="evenodd" clip-rule="evenodd" d="M264.535 160.683H264.642C265.216 160.683 265.687 161.196 265.687 161.821C265.687 162.446 265.216 162.959 264.642 162.959H264.535C263.961 162.959 263.49 162.446 263.49 161.821C263.485 161.196 263.956 160.683 264.535 160.683Z" fill="white"/>
<path fill-rule="evenodd" clip-rule="evenodd" d="M224.672 200.777H208.905C208.331 200.777 207.859 201.291 207.859 201.916C207.859 202.54 208.331 203.054 208.905 203.054H224.672C225.245 203.054 225.717 202.54 225.717 201.916C225.717 201.291 225.245 200.777 224.672 200.777Z" fill="white"/>
<path fill-rule="evenodd" clip-rule="evenodd" d="M276.884 168.243H209.843C208.749 168.243 207.859 169.216 207.859 170.403V195.615C207.859 196.802 208.754 197.775 209.843 197.775H276.884C277.978 197.775 278.868 196.802 278.868 195.615V170.403C278.868 169.211 277.978 168.243 276.884 168.243Z" fill="#BE865E"/>
<path fill-rule="evenodd" clip-rule="evenodd" d="M214.676 188.849L214.919 190.065C214.919 190.065 214.715 193.402 214.715 193.799C214.715 194.191 215.113 196.06 215.113 196.06C215.113 196.06 214 199.412 210.558 198.923C207.115 198.434 203.556 192.762 203.556 192.762C203.556 192.762 205.958 190.351 207.033 185.653C208.112 180.955 214.676 188.849 214.676 188.849Z" fill="#F0F1F1"/>
<path fill-rule="evenodd" clip-rule="evenodd" d="M250.678 130.769L247.786 126.768L225.1 135.742L223.597 137.239L224.847 140.498C224.842 140.498 246.954 138.895 250.678 130.769Z" fill="#020516"/>
<path fill-rule="evenodd" clip-rule="evenodd" d="M267.039 133.931C267.039 133.931 271.371 132.706 271.371 136.648C271.371 142.299 266.806 149.719 257.145 149.719C250.178 149.719 232.66 150.285 226.164 150.285C226.164 150.285 224.818 150.285 224.186 152.179C223.554 154.073 215.507 193.784 215.507 193.784C215.507 193.784 216.3 195.775 214.953 195.654C214.277 195.596 212.95 194.38 211.263 193.712C210.577 193.441 207.519 192.792 205.472 192.467C204.48 192.307 203.513 192.68 203.571 192.336C203.586 192.259 203.362 192.075 203.469 191.61C203.503 191.465 203.882 190.879 203.916 190.704C205.428 183.13 213.154 144.915 213.659 143.331C214.214 141.597 216.037 139.941 220.709 139.074C225.382 138.207 241.139 135.209 244.231 134.26C247.319 133.311 247.795 128.425 247.795 126.768C247.786 125.112 255.954 122.889 267.039 133.931Z" fill="#020516"/>
<path fill-rule="evenodd" clip-rule="evenodd" d="M216.64 208.023C216.64 208.023 185.212 208.299 184.25 208.023C183.282 207.751 182.864 207.228 182.864 206.056C182.864 204.884 182.864 204.424 182.864 203.543C182.864 202.991 182.99 202.284 183.797 201.727C184.269 201.397 184.979 201.209 186.034 200.884C188.883 200.003 192.724 199.625 194.863 199.165C197.002 198.705 200.843 193.426 201.354 193.092C201.869 192.758 203.376 192.758 204.918 192.758C206.464 192.758 208.958 192.84 209.707 194.603C210.46 196.361 213.655 196.608 214.865 196.065C214.865 196.065 216.037 195.983 216.319 196.782C216.596 197.576 216.441 203.107 216.523 203.693C216.601 204.279 216.343 204.55 216.343 204.55C216.343 204.55 216.878 204.947 216.975 205.136C217.073 205.325 217.111 205.848 217.111 206.395C217.116 206.933 217.184 207.979 216.64 208.023Z" fill="#131E3A"/>
<path fill-rule="evenodd" clip-rule="evenodd" d="M183.895 201.799C184.366 201.494 185.047 201.184 186.029 200.884C188.878 200.003 192.719 199.625 194.858 199.165C195.32 199.068 195.86 198.744 196.424 198.293L200.698 198.129L200.834 199.465C200.834 199.465 202.122 199.698 201.626 200.555C201.13 201.412 197.153 202.584 193.628 202.584C190.103 202.584 186.384 202.584 185.037 202.584C184.298 202.584 183.938 202.303 183.895 201.799Z" fill="#131E3A"/>
<path fill-rule="evenodd" clip-rule="evenodd" d="M216.64 208.023C216.64 208.023 214.967 208.042 211.481 208.066C208.55 207.287 205.968 206.42 205.968 206.42C205.968 206.42 210.878 199.635 210.601 199.005C210.324 198.376 206.838 195.32 206.838 195.32C206.838 195.32 207.344 194.404 208.059 193.16C208.778 193.426 209.396 193.867 209.707 194.598C210.46 196.356 213.655 196.603 214.865 196.061C214.865 196.061 216.037 195.978 216.319 196.777C216.596 197.572 216.441 203.102 216.523 203.688C216.601 204.274 216.343 204.545 216.343 204.545C216.343 204.545 216.878 204.943 216.975 205.131C217.073 205.32 217.112 205.843 217.112 206.391C217.116 206.933 217.184 207.979 216.64 208.023Z" fill="#131E3A"/>
<path fill-rule="evenodd" clip-rule="evenodd" d="M194.426 199.252C194.576 199.223 194.722 199.194 194.858 199.165C196.998 198.705 200.839 193.426 201.349 193.092C201.864 192.758 203.372 192.758 204.913 192.758C206.07 192.758 207.762 192.806 208.851 193.566C209.041 193.707 209.799 194.428 207.825 195.697C205.608 197.121 202.599 198.966 201.451 199.339C200.309 199.717 197.61 199.373 194.426 199.252Z" fill="#010B1C"/>
<path fill-rule="evenodd" clip-rule="evenodd" d="M184.22 204.546C185.11 204.802 213.154 204.575 216.329 204.546C216.329 204.546 216.854 204.943 216.951 205.132C217.048 205.32 217.087 205.843 217.087 206.391C217.087 206.938 217.155 207.984 216.62 208.023C216.62 208.023 185.168 208.299 184.22 208.023C183.277 207.752 182.864 207.228 182.864 206.056C182.864 204.885 182.864 204.424 182.864 203.543C182.864 203.398 182.874 203.252 182.898 203.107C183.015 203.916 183.433 204.318 184.22 204.546Z" fill="#AFB5BA"/>
<path fill-rule="evenodd" clip-rule="evenodd" d="M184.22 204.545C185.018 204.778 207.46 204.618 214.515 204.56C214.515 205.102 214.462 205.746 214.048 205.78C214.048 205.78 188.786 205.998 182.864 205.848V203.538C182.864 203.393 182.874 203.247 182.898 203.102C183.015 203.916 183.433 204.318 184.22 204.545Z" fill="#F2F9FC"/>
<path fill-rule="evenodd" clip-rule="evenodd" d="M202.496 193.349C202.414 193.276 202.438 193.121 202.555 193C202.671 192.879 202.837 192.84 202.919 192.908L204.198 193.964L207.349 193.368C207.49 193.344 207.577 193.431 207.548 193.571C207.514 193.707 207.378 193.843 207.237 193.867L204.67 194.351L205.594 195.111C205.681 195.184 205.652 195.339 205.54 195.46C205.511 195.489 205.482 195.513 205.448 195.533C205.389 195.63 205.282 195.707 205.18 195.727L202.613 196.211L203.537 196.971C203.62 197.044 203.595 197.199 203.479 197.32C203.406 197.397 203.308 197.446 203.226 197.446L200.45 197.969L201.189 198.7L201.193 198.705V198.71V198.715V198.719L201.198 198.724V198.729V198.734V198.739V198.744V198.749V198.753V198.758V198.763V198.768V198.773V198.778V198.782V198.802V198.811V198.816V198.821V198.826C201.198 198.841 201.193 198.85 201.189 198.86L201.184 198.87V198.874V198.879C201.179 198.889 201.174 198.903 201.169 198.913V198.918L201.164 198.923L201.15 198.947L201.145 198.952L201.135 198.962L201.13 198.966L201.125 198.971L201.121 198.976L201.111 198.986L201.106 198.991L201.101 198.995L201.096 199L201.091 199.005L201.086 199.01L201.082 199.015H201.077H201.072L201.067 199.02L201.062 199.025L201.057 199.029L201.052 199.034L201.048 199.039L201.043 199.044L201.038 199.049L201.033 199.054L201.028 199.058L201.023 199.063L201.018 199.068L201.014 199.073L201.009 199.078L201.004 199.083H200.999H200.994H200.989L200.984 199.087L200.979 199.092L200.975 199.097H200.97H200.965H200.96H200.955L200.95 199.102H200.945H200.941L200.931 199.107H200.926H200.921H200.916H200.911H200.907H200.902H200.897H200.892H200.887H200.882H200.877H200.873H200.868H200.863H200.858H200.853L196.716 198.608H196.711C196.691 198.608 196.672 198.603 196.657 198.598H196.652L196.638 198.594H196.633L196.628 198.589L196.623 198.584H196.618C196.613 198.579 196.609 198.574 196.599 198.569C196.57 198.535 196.56 198.487 196.57 198.429V198.419C196.579 198.376 196.599 198.332 196.628 198.293L196.633 198.288L196.647 198.269L196.652 198.264L196.672 198.245C196.682 198.235 196.686 198.225 196.696 198.221C196.745 198.177 196.808 198.143 196.866 198.129L196.881 198.124L199.322 197.664L198.519 196.869C198.442 196.792 198.476 196.637 198.597 196.521C198.67 196.448 198.758 196.409 198.835 196.409L201.373 195.93L200.45 195.17C200.362 195.097 200.391 194.942 200.503 194.821C200.532 194.792 200.561 194.768 200.595 194.748C200.654 194.651 200.761 194.574 200.868 194.555L203.435 194.07L202.496 193.349ZM200.163 198.555L199.711 198.109L198.446 198.347L200.163 198.555ZM202.686 197.073L201.825 196.361L199.292 196.84L200.036 197.577L202.686 197.073ZM204.874 195.31L203.892 194.496L201.15 195.015L202.132 195.828L204.874 195.31Z" fill="white"/>
<path fill-rule="evenodd" clip-rule="evenodd" d="M221.842 175.754C221.92 175.517 222.285 173.439 222.285 173.439C222.285 173.439 221.75 171.575 221.716 170.606C221.682 169.638 221.166 167.788 221.166 167.788L217.248 167.589L213.766 170.839C213.766 170.839 213.762 172.757 213.446 173.623C213.13 174.49 219.314 175.948 219.314 175.948L221.842 175.754Z" fill="#F0F1F1"/>
<path fill-rule="evenodd" clip-rule="evenodd" d="M236.934 127.717C227.117 128.139 208.836 120.361 209.853 136.972C210.504 147.622 212.468 165.415 213.018 170.674C213.12 171.643 212.741 172.209 212.741 172.209C212.741 172.209 212.901 172.781 213.494 172.742C213.494 172.742 218.726 172.112 222.129 173.333C222.129 173.333 223.155 173.488 223.272 172.776C223.286 172.679 222.922 171.696 222.999 170.505C223.5 163.134 225.032 138.725 225.032 138.725C234.376 136.943 247.781 137.82 247.781 126.768L236.934 127.717Z" fill="#020E28"/>
<path fill-rule="evenodd" clip-rule="evenodd" d="M204.388 190.651C204.388 190.651 211.467 189.823 214.457 189.469C217.447 189.121 218.449 188.167 220.077 186.428C221.706 184.689 223.704 182.389 224.05 181.91C224.39 181.435 224.341 180.486 224.278 179.958C224.215 179.43 223.675 178.917 223.675 178.917C223.675 178.917 223.34 176.055 223.233 175.173C223.131 174.292 222.644 173.575 222.289 173.439C222.289 173.439 221.273 174.113 219.489 173.846C217.705 173.58 217.889 172.447 216.197 172.645C214.505 172.844 214.467 172.849 213.246 172.989C212.026 173.129 210.976 174.011 210.689 175.275C210.397 176.539 210.392 177.813 209.332 179.328C208.277 180.844 204.349 185.711 203.868 186.365C203.386 187.019 202.997 187.581 203.085 188.322C203.172 189.067 203.197 189.281 203.25 189.712C203.294 190.143 203.649 190.733 204.388 190.651Z" fill="#131E3A"/>
<path fill-rule="evenodd" clip-rule="evenodd" d="M204.388 190.651C204.388 190.651 211.467 189.823 214.457 189.47C215.317 189.368 216.013 189.218 216.611 189.014C216.377 187.61 216.09 185.929 216.09 185.929C216.09 185.929 216.027 185.372 215.92 184.491C215.818 183.61 215.706 183.058 212.288 183.459L207.888 183.987C207.888 183.987 207.276 184.06 206.566 184.142C205.871 184.225 205.297 184.559 205.025 184.888L205.01 184.903C204.441 185.624 204.009 186.172 203.868 186.36C203.386 187.014 202.997 187.576 203.085 188.317C203.172 189.063 203.197 189.276 203.25 189.707C203.294 190.143 203.649 190.734 204.388 190.651Z" fill="#131E3A"/>
<path fill-rule="evenodd" clip-rule="evenodd" d="M221.599 184.762C222.761 183.464 223.806 182.244 224.049 181.91C224.39 181.435 224.341 180.486 224.278 179.958C224.215 179.43 223.675 178.917 223.675 178.917C223.675 178.917 223.34 176.055 223.233 175.173C223.131 174.292 222.644 173.575 222.289 173.439C222.289 173.439 221.273 174.113 219.489 173.846C217.938 173.614 217.87 172.727 216.776 172.631L215.886 174.965C215.886 174.965 219.786 176.079 220.16 176.21C220.534 176.345 220.889 176.8 220.758 178.205C220.627 179.609 220.209 184.859 220.209 184.859C220.209 184.859 220.763 184.825 221.599 184.762Z" fill="#131E3A"/>
<path fill-rule="evenodd" clip-rule="evenodd" d="M217.821 173.086L217.782 173.057C217.403 172.776 217.024 172.553 216.202 172.65C214.51 172.849 214.471 172.854 213.251 172.994C212.031 173.134 210.981 174.016 210.694 175.28C210.606 175.662 210.543 176.045 210.47 176.437C210.47 176.437 210.363 178.505 210.008 179.043C209.653 179.58 207.99 182.457 207.446 183.154C206.901 183.852 207.893 183.987 207.893 183.987C207.893 183.987 209.546 183.794 211.472 183.566C213.397 183.338 213.976 183.154 214.54 182.53C215.103 181.91 216.723 179.435 217.252 178.655C217.782 177.88 217.923 176.413 218.235 174.965C218.483 173.74 217.977 173.217 217.821 173.086Z" fill="#010B1C"/>
<path fill-rule="evenodd" clip-rule="evenodd" d="M219.708 183.295C218.079 185.033 217.077 185.987 214.087 186.336C211.097 186.685 204.023 187.518 204.023 187.518C203.697 187.556 203.444 187.46 203.26 187.305C203.114 187.619 203.036 187.949 203.08 188.322C203.167 189.067 203.192 189.281 203.245 189.712C203.294 190.143 203.654 190.733 204.393 190.651C204.393 190.651 211.472 189.823 214.462 189.469C217.452 189.121 218.453 188.167 220.082 186.428C221.711 184.689 223.709 182.389 224.054 181.91C224.395 181.435 224.346 180.486 224.283 179.958C224.22 179.43 223.68 178.917 223.68 178.917C223.68 178.917 223.675 178.873 223.665 178.801C223.272 179.328 221.307 181.58 219.708 183.295Z" fill="#AFB5BA"/>
<path fill-rule="evenodd" clip-rule="evenodd" d="M219.708 183.295C218.079 185.033 217.077 185.987 214.087 186.336C211.097 186.685 204.023 187.518 204.023 187.518C203.697 187.556 203.444 187.459 203.26 187.304C203.114 187.619 203.036 187.949 203.08 188.322L203.162 189.043C216.674 187.367 217.16 187.581 219.45 185.149C220.486 184.05 221.784 182.626 222.868 181.265C223.442 180.544 223.174 179.42 222.304 180.423C221.531 181.299 220.563 182.374 219.708 183.295Z" fill="#F2F9FC"/>
<path fill-rule="evenodd" clip-rule="evenodd" d="M211.729 175.914C211.574 175.861 211.486 175.696 211.54 175.536C211.588 175.381 211.758 175.294 211.914 175.347L214.258 176.103L217.646 174.66C217.797 174.597 217.972 174.665 218.04 174.815C218.103 174.965 218.035 175.139 217.885 175.207L215.123 176.384L216.815 176.931C216.97 176.984 217.058 177.149 217.009 177.304C216.995 177.343 216.975 177.377 216.951 177.406C216.951 177.522 216.883 177.629 216.771 177.677L214.01 178.854L215.702 179.401C215.857 179.449 215.945 179.619 215.891 179.774C215.857 179.876 215.774 179.948 215.677 179.972L212.692 181.246L214.141 181.808L214.151 181.813H214.155H214.16H214.165H214.17H214.175H214.18H214.185H214.189L214.194 181.818H214.199H214.204L214.209 181.822H214.214L214.219 181.827L214.223 181.832L214.228 181.837L214.233 181.842L214.238 181.847L214.243 181.852L214.248 181.856L214.253 181.861L214.258 181.866L214.262 181.871L214.267 181.876L214.272 181.881L214.287 181.9L214.296 181.914L214.301 181.919L214.306 181.924L214.311 181.929C214.316 181.944 214.321 181.953 214.326 181.968L214.33 181.982V181.987V181.992C214.335 182.006 214.335 182.016 214.335 182.031V182.036V182.04V182.045V182.074V182.079V182.094V182.099V182.103V182.108L214.33 182.123V182.128V182.132V182.137V182.142V182.147V182.152V182.157V182.161V182.166V182.171V182.176L214.326 182.181L214.321 182.186L214.316 182.191L214.311 182.195L214.306 182.2L214.301 182.205L214.296 182.21L214.292 182.215L214.287 182.22L214.282 182.224L214.277 182.229L214.272 182.234L214.267 182.239L214.262 182.244L214.258 182.249L214.253 182.253L214.248 182.258L214.243 182.263L214.238 182.268L214.233 182.273L214.228 182.278L214.223 182.283L214.219 182.287L214.214 182.292L214.209 182.297L214.204 182.302L214.189 182.307H214.185H214.18H214.175H214.17H214.165H214.16H214.155H214.151H214.146H214.141H214.136H214.131H214.126H214.121H214.117H214.112H214.107H214.102H214.092L208.691 182.878H208.681C208.657 182.883 208.632 182.883 208.608 182.878H208.603L208.584 182.873H208.579L208.564 182.869H208.559H208.554C208.545 182.864 208.535 182.864 208.52 182.859C208.462 182.83 208.409 182.786 208.379 182.723L208.375 182.709C208.355 182.66 208.345 182.612 208.35 182.563V182.559L208.355 182.539V182.534L208.365 182.51C208.37 182.5 208.375 182.491 208.379 182.476C208.409 182.418 208.457 182.365 208.516 182.336L208.53 182.331L211.156 181.212L209.585 180.602C209.434 180.544 209.357 180.37 209.415 180.219C209.454 180.127 209.532 180.064 209.619 180.04L212.352 178.878L210.66 178.331C210.504 178.277 210.417 178.113 210.47 177.953C210.485 177.914 210.504 177.88 210.528 177.851C210.528 177.735 210.596 177.624 210.708 177.58L213.47 176.403L211.729 175.914ZM212.784 181.924L211.904 181.58L210.543 182.161L212.784 181.924ZM214.744 179.725L213.164 179.217L210.436 180.379L211.89 180.946L214.744 179.725ZM216.086 177.323L214.282 176.742L211.335 177.997L213.139 178.578L216.086 177.323Z" fill="white"/>
<path fill-rule="evenodd" clip-rule="evenodd" d="M274.677 88.0446C275.066 95.3768 275.178 104.21 275.178 104.21C275.178 104.21 272.28 117.756 272.28 124.226C272.28 128.163 274.186 132.42 273.534 135.19C271.492 143.854 263.743 127.718 247.149 127.718H236.934C236.934 127.718 235.426 126.618 235.31 124.686C235.208 122.996 237.828 114.23 238.543 110.685C237.887 111.639 237.444 112.23 237.444 112.23C237.444 112.23 232.135 113.15 231.926 107.445C231.717 101.736 236.409 83.6763 238.125 81.5503C241.339 77.5694 244.266 75.5499 249.4 74.3876C249.4 74.3876 256.275 72.8767 263.144 73.7193C263.373 73.7726 270.087 74.6588 274.696 79.0078C274.92 80.9449 274.556 85.1728 274.696 88.0398L274.677 88.0446Z" fill="#F18F2F"/>
<path fill-rule="evenodd" clip-rule="evenodd" d="M275.158 102.864C275.173 103.716 275.178 104.21 275.178 104.21C275.178 104.21 272.28 117.756 272.28 124.226C272.28 128.163 274.186 132.42 273.534 135.19C271.838 142.382 266.212 132.488 254.86 128.918C257.412 126.361 262.615 120.715 265.371 114.666C269.125 106.447 268.872 96.7325 268.498 87.8894C270.136 94.5871 272.586 99.2848 275.158 102.864Z" fill="#EB664C"/>
<path fill-rule="evenodd" clip-rule="evenodd" d="M241.645 97.6286C242.894 86.2962 241.771 83.1823 241.771 83.1823C241.771 83.1823 239.117 99.9387 236.744 105.542C234.371 111.145 233.394 109.213 234.269 109.213C235.144 109.213 241.898 110.583 241.898 109.087C241.898 107.59 241.645 97.6286 241.645 97.6286Z" fill="#EC6D3B" stroke="#EB664C" stroke-width="0.216" stroke-miterlimit="22.9256"/>
<path fill-rule="evenodd" clip-rule="evenodd" d="M242.024 92.1464C244.776 94.6986 261.778 95.3863 266.903 94.7615C272.027 94.1368 272.027 94.1368 272.027 94.1368L272.654 105.595C272.713 106.69 261.132 107.193 251.68 106.104C245.68 105.411 240.133 103.445 240.274 102.602L242.024 92.1464Z" fill="white"/>
<path fill-rule="evenodd" clip-rule="evenodd" d="M268.697 94.5437L270.53 94.3209C271.07 95.6866 271.648 96.9458 272.251 98.1081L272.659 105.595C272.684 106.041 270.763 106.389 267.846 106.573C268.556 102.646 268.731 98.5682 268.697 94.5437Z" fill="#DBDCDC"/>
<path fill-rule="evenodd" clip-rule="evenodd" d="M259.182 121.601C258.808 122.1 257.631 121.494 257.281 121.853C254.014 125.16 251.49 122.976 247.805 126.24C246.084 127.766 256.931 127.151 258.059 127.301L264.812 122.879L259.182 121.601Z" fill="#F4AD85"/>
<path fill-rule="evenodd" clip-rule="evenodd" d="M257.145 121.989C256.576 122.541 256.027 122.933 255.492 123.214C257.116 124.41 257.364 125.611 256.401 125.994C255.307 126.429 252.682 126.773 249.648 126.429C248.923 126.347 248.646 126.618 248.729 127.069C251.247 127.49 257.232 127.19 258.054 127.301L262.469 124.41C261.005 123.199 259.002 122.037 257.145 121.989Z" fill="#EA745D"/>
<path fill-rule="evenodd" clip-rule="evenodd" d="M264.219 73.8983C265.114 74.1114 264.185 76.9735 263.232 78.7848C259.08 86.6884 250.144 84.204 250.144 74.4891V74.2131C251.121 73.9661 251.286 73.8838 252.006 73.724C256.493 73.4043 259.838 72.8571 264.219 73.8983Z" fill="white"/>
<path fill-rule="evenodd" clip-rule="evenodd" d="M257.432 61.3505C254.369 61.3505 251.86 63.8494 251.86 66.9004V74.2423C251.86 77.2933 253.304 81.4727 256.367 81.4727C259.43 81.4727 263.003 77.2933 263.003 74.2423V66.9004C263.003 63.8446 260.495 61.3505 257.432 61.3505Z" fill="#EB6B5D"/>
<path fill-rule="evenodd" clip-rule="evenodd" d="M252.497 136.299C252.497 136.299 231.323 140.997 230.365 141.312C229.407 141.631 228.527 142.982 228.77 145.767C229.009 148.552 230.37 146.3 236.282 146.697C242.194 147.094 255.059 146.832 258.492 145.254C261.929 143.675 263.285 143.06 262.007 139.161C260.723 135.263 255.613 135.582 252.497 136.299Z" fill="#020E28"/>
<path fill-rule="evenodd" clip-rule="evenodd" d="M279.272 94.9118C279.524 99.067 279.811 103.469 279.403 107.106C279.082 110.007 278.158 112.467 277.584 113.62C276.977 114.845 265.522 124.284 261.501 127.446C261.02 127.824 260.397 128.58 260.407 128.289C260.5 124.57 259.187 124.991 256.216 122.773C259.688 119.548 268.274 111.76 269.509 107.862C269.509 107.862 270.029 106.719 269.718 103.193C269.407 99.6627 268.862 87.6038 268.906 85.7538C268.95 83.9038 269.256 80.4315 270.598 78.7607C272.129 78.0246 273.491 78.0294 274.551 78.9108C277.915 81.6906 279.033 90.9987 279.272 94.9118Z" fill="#F18F2F"/>
<path fill-rule="evenodd" clip-rule="evenodd" d="M257.218 123.461C256.907 123.257 256.576 123.03 256.221 122.768C259.692 119.543 268.279 111.755 269.514 107.857C269.514 107.857 270.034 106.714 269.723 103.188C269.411 99.6578 268.867 87.599 268.911 85.749C268.925 85.1872 268.959 84.4753 269.047 83.7101C269.509 83.2065 269.781 82.9304 269.781 82.9304C269.781 82.9304 272.907 101.861 272.781 105.101C272.659 108.201 267.948 114.506 257.218 123.461Z" fill="#F29A47"/>
<path fill-rule="evenodd" clip-rule="evenodd" d="M219.095 129.718H257.68C258.399 129.718 258.992 129.132 258.992 128.41C258.992 127.693 258.404 127.103 257.68 127.103H219.095C218.376 127.103 217.782 127.689 217.782 128.41C217.782 129.127 218.371 129.718 219.095 129.718Z" fill="#E62952"/>
<path fill-rule="evenodd" clip-rule="evenodd" d="M219.095 129.718H257.68C258.146 129.718 258.56 129.471 258.793 129.102C258.56 128.734 258.146 128.487 257.68 128.487H219.095C218.628 128.487 218.215 128.734 217.982 129.102C218.215 129.471 218.628 129.718 219.095 129.718Z" fill="#E62952"/>
<path fill-rule="evenodd" clip-rule="evenodd" d="M218.074 127.103H251.116C252.059 127.103 252.735 126.333 252.623 125.393L249.988 104.075C249.871 103.135 249.006 102.365 248.063 102.365H215.021C214.078 102.365 213.402 103.135 213.514 104.075L216.149 125.393C216.261 126.333 217.131 127.103 218.074 127.103Z" fill="#D10D49"/>
<path fill-rule="evenodd" clip-rule="evenodd" d="M218.074 127.103H250.144C251.087 127.103 251.763 126.333 251.646 125.393L249.011 104.075C248.894 103.135 248.029 102.365 247.085 102.365H215.021C214.078 102.365 213.402 103.135 213.514 104.075L216.149 125.393C216.261 126.333 217.131 127.103 218.074 127.103Z" fill="#E62952"/>
<path fill-rule="evenodd" clip-rule="evenodd" d="M219.82 127.103H223.121L249.166 105.324L249.011 104.075C248.967 103.702 248.802 103.353 248.559 103.072L219.82 127.103ZM244.81 102.365L216.397 126.12C216.265 125.897 216.173 125.65 216.139 125.393L215.731 122.076L239.306 102.365H244.81Z" fill="#E84B6B"/>
<path fill-rule="evenodd" clip-rule="evenodd" d="M252.895 129.718H257.675C258.394 129.718 258.987 129.132 258.987 128.41C258.987 127.693 258.399 127.103 257.675 127.103H252.895C252.176 127.103 251.583 127.689 251.583 128.41C251.583 129.127 252.176 129.718 252.895 129.718Z" fill="#D10D49"/>
<path fill-rule="evenodd" clip-rule="evenodd" d="M218.439 127.756H252.813C253.173 127.756 253.469 127.461 253.469 127.103C253.469 126.744 253.173 126.449 252.813 126.449H218.439C218.079 126.449 217.782 126.744 217.782 127.103C217.782 127.461 218.079 127.756 218.439 127.756Z" fill="#D10D49"/>
<path fill-rule="evenodd" clip-rule="evenodd" d="M231.902 111.45C233.725 111.45 235.354 112.922 235.538 114.734C235.723 116.55 234.401 118.017 232.577 118.017C230.754 118.017 229.125 116.545 228.941 114.734C228.911 114.448 228.921 114.177 228.96 113.91C229.286 114.215 229.723 114.409 230.185 114.409C231.085 114.409 231.741 113.683 231.649 112.787C231.6 112.307 231.347 111.876 230.983 111.581C231.274 111.494 231.581 111.45 231.902 111.45Z" fill="#FFFDF8"/>
<path fill-rule="evenodd" clip-rule="evenodd" d="M268.391 58.2656C268.473 58.2753 268.556 58.2898 268.638 58.3092C270.151 58.624 271.298 59.9461 271.332 61.554C271.366 63.4185 269.878 64.9634 268.006 64.9973C266.135 65.0312 264.584 63.5492 264.55 61.6847C264.53 60.5999 265.021 59.6265 265.809 58.9921C265.721 59.9897 265.882 61.2246 267.16 61.3457L267.122 59.3989C267.112 58.6095 267.851 58.2463 268.391 58.2656Z" fill="#E8685B"/>
<path fill-rule="evenodd" clip-rule="evenodd" d="M243.911 58.2656C243.828 58.2753 243.745 58.2898 243.663 58.3092H243.658C242.146 58.624 240.998 59.9461 240.964 61.554C240.93 63.4185 242.418 64.9634 244.29 64.9973C246.162 65.0312 247.708 63.5492 247.747 61.6847C247.766 60.5999 247.275 59.6265 246.487 58.9921C246.575 59.9897 246.414 61.2246 245.136 61.3457L245.175 59.3989C245.194 58.6095 244.455 58.2463 243.911 58.2656Z" fill="#E8685B"/>
<path fill-rule="evenodd" clip-rule="evenodd" d="M256.153 41.3928C262.542 41.3928 267.763 46.5989 267.763 52.9577V63.4765C267.763 69.84 262.537 75.0413 256.153 75.0413C249.769 75.0413 244.543 69.8352 244.543 63.4765V52.9577C244.538 46.5989 249.764 41.3928 256.153 41.3928Z" fill="#F4AD85"/>
<path fill-rule="evenodd" clip-rule="evenodd" d="M256.153 41.3928C262.542 41.3928 267.763 46.5989 267.763 52.9577V63.4765C267.763 69.84 262.537 75.0413 256.153 75.0413C265.065 74.0582 265.371 66.0965 265.371 61.6604C265.371 57.2243 261.54 55.7327 260.645 55.7327C259.746 55.7327 256.304 55.7327 256.304 55.7327C251.515 59.3939 245.768 59.9121 245.768 59.9121L244.547 60.6192L244.927 57.6795L253.158 54.7738C253.158 54.7738 249.127 54.9239 244.547 54.8416V52.9528C244.538 46.5989 249.764 41.3928 256.153 41.3928Z" fill="#EF8871"/>
<path fill-rule="evenodd" clip-rule="evenodd" d="M258.671 66.6244C258.735 68.2758 257.446 69.6706 255.788 69.7336C254.13 69.7965 252.73 68.5131 252.667 66.8617H252.672C252.662 66.576 252.886 66.3387 253.168 66.3241L258.127 66.1304C258.414 66.1159 258.657 66.3387 258.671 66.6244Z" fill="white"/>
<path fill-rule="evenodd" clip-rule="evenodd" d="M257.646 68.9974C257.145 69.4333 256.503 69.7045 255.788 69.7336C255.205 69.7578 254.655 69.6125 254.184 69.3461C254.388 68.7214 255.044 68.2371 255.856 68.1742C256.629 68.1112 257.325 68.455 257.646 68.9974Z" fill="white"/>
<path fill-rule="evenodd" clip-rule="evenodd" d="M253.105 66.3288L257.762 66.1448C257.855 66.6533 257.641 67.186 257.296 67.3119C256.877 67.4669 253.503 67.5105 253.255 67.2538C253.139 67.1327 253.105 66.7211 253.105 66.3288Z" fill="white"/>
<path fill-rule="evenodd" clip-rule="evenodd" d="M249.565 64.0527C250.411 64.0382 251.106 64.7065 251.121 65.5443C251.135 66.3822 250.465 67.0795 249.623 67.0941C248.782 67.1086 248.082 66.4403 248.068 65.6024C248.053 64.7598 248.724 64.0673 249.565 64.0527Z" fill="#E8685B"/>
<path fill-rule="evenodd" clip-rule="evenodd" d="M262.702 63.801C263.543 63.7865 264.243 64.4548 264.258 65.2926C264.272 66.1304 263.601 66.8278 262.76 66.8423C261.919 66.8569 261.219 66.1886 261.205 65.3507C261.19 64.5129 261.861 63.8204 262.702 63.801Z" fill="#E8685B"/>
<path fill-rule="evenodd" clip-rule="evenodd" d="M245.763 58.4301C245.763 58.4301 245.763 59.205 245.763 59.9217C245.763 60.6385 245.092 61.4424 244.543 61.4424V59.8152C244.543 59.8152 244.309 58.6142 242.821 58.6142C238.251 53.379 238.854 45.0734 243.731 40.7632C248.607 36.453 259.09 36.1818 260.918 36.7872C262.746 37.3925 264.632 40.4872 264.632 40.4872C264.632 40.4872 266.183 39.1069 267.627 39.8237C269.066 40.5404 272.863 48.507 272.863 50.7735C272.863 53.04 269.494 58.6142 269.494 58.6142C268.006 58.6142 267.768 59.8152 267.768 59.8152V61.4424C267.214 61.4424 266.548 60.6433 266.548 59.9217C266.548 59.205 266.548 58.4301 266.548 58.4301C261.958 56.4009 260.504 50.3134 260.504 50.3134C260.504 50.3134 253.25 59.5198 245.763 58.4301Z" fill="#010C28"/>
<path fill-rule="evenodd" clip-rule="evenodd" d="M239.72 49.4854C239.841 46.8557 240.726 44.2938 242.321 42.2501C246.235 44.8894 254.451 48.2407 262.522 37.843C263.037 38.3322 263.504 38.8939 263.869 39.3734C260.957 44.8071 253.81 53.844 239.72 49.4854Z" fill="#0F1630"/>
<path fill-rule="evenodd" clip-rule="evenodd" d="M245.763 58.4302C244.97 58.7692 245.325 63.6509 244.431 63.6509C244.178 62.3626 244.319 58.6094 242.817 58.6094C241.008 56.5366 240.011 53.9893 239.763 51.3935C245.111 56.7449 257.825 51.9213 260.961 47.9308C260.961 47.9308 266.266 53.5728 272.839 50.73C272.868 50.8995 272.883 51.0496 272.883 51.1755C272.883 53.442 269.484 58.6094 269.484 58.6094C268.575 58.6094 268.381 61.8687 267.758 63.4959C267.204 63.4959 266.538 60.6386 266.538 59.9218C266.538 59.2051 266.538 58.4302 266.538 58.4302C261.948 56.401 260.495 50.3135 260.495 50.3135C260.495 50.3135 253.25 59.5199 245.763 58.4302Z" fill="#020516"/>
<path fill-rule="evenodd" clip-rule="evenodd" d="M248.739 59.0066C248.534 59.1083 248.286 59.026 248.184 58.8225C248.082 58.6191 248.165 58.3722 248.369 58.2705C249.463 57.7087 250.922 57.6457 251.996 58.285C252.191 58.4012 252.254 58.653 252.137 58.8468C252.02 59.0405 251.767 59.1034 251.573 58.9872C250.703 58.4739 249.619 58.5901 248.739 59.0066Z" fill="#020516"/>
<path fill-rule="evenodd" clip-rule="evenodd" d="M263.567 59.0064C262.687 58.5899 261.603 58.4737 260.733 58.9918C260.538 59.1081 260.286 59.0451 260.169 58.8514C260.052 58.6577 260.115 58.4059 260.31 58.2896C261.38 57.6504 262.843 57.7133 263.937 58.2751C264.141 58.3768 264.224 58.6238 264.122 58.8272C264.015 59.0257 263.767 59.1081 263.567 59.0064Z" fill="#020516"/>
<path fill-rule="evenodd" clip-rule="evenodd" d="M262.303 60.3916C262.853 60.3916 263.305 60.842 263.305 61.3892V62.692C263.305 63.2392 262.853 63.6896 262.303 63.6896C261.754 63.6896 261.302 63.2392 261.302 62.692V61.3892C261.302 60.842 261.754 60.3916 262.303 60.3916Z" fill="#020516"/>
<path fill-rule="evenodd" clip-rule="evenodd" d="M250.003 60.3916C249.448 60.3916 249.001 60.842 249.001 61.3892V62.692C249.001 63.2392 249.453 63.6896 250.003 63.6896C250.552 63.6896 251.004 63.2392 251.004 62.692V61.3892C251.004 60.842 250.552 60.3916 250.003 60.3916Z" fill="#020516"/>
<path fill-rule="evenodd" clip-rule="evenodd" d="M254.762 62.8129C254.762 62.8129 254.126 64.1834 254.053 64.6096C253.98 65.0309 254.388 65.2634 255.249 65.1278C256.109 64.9922 255.351 61.9751 254.762 62.8129Z" fill="#F8CAB0"/>
<path fill-rule="evenodd" clip-rule="evenodd" d="M267.088 58.4591C266.718 58.033 266.008 57.4809 265.59 57.1612C265.483 57.0741 265.371 56.9917 265.255 56.9142C265.25 56.9094 265.245 56.9094 265.245 56.9094C264.428 56.3622 263.446 56.0474 262.386 56.0474C260.961 56.0474 259.673 56.6237 258.74 57.5535C258.287 57.9748 257.898 58.4349 257.5 58.8853C256.989 59.4568 256.688 59.1759 256.177 59.1759C255.667 59.1759 255.365 59.4568 254.855 58.8853C254.451 58.4349 254.062 57.9748 253.615 57.5535C252.682 56.6237 251.379 56.0474 249.954 56.0474C248.894 56.0474 247.849 56.367 247.081 56.9094C247.081 56.9094 247.095 56.9094 247.09 56.9142C246.974 56.9917 246.872 57.0741 246.765 57.1612C246.342 57.476 245.617 58.033 245.248 58.4591C245.063 58.6674 244.81 58.8127 244.552 58.9144V60.9096C244.664 61.2341 244.795 61.8298 244.975 62.44C245.048 62.7306 245.155 63.0115 245.277 63.2827C245.393 63.549 245.525 63.796 245.675 63.9994C246.599 65.3893 248.179 66.3046 249.973 66.3046C252.059 66.3046 253.853 65.0697 254.665 63.2923C254.665 63.2875 254.665 63.2875 254.67 63.2875C254.675 63.2827 254.68 63.273 254.68 63.2681C255.049 62.6434 255.424 60.9339 255.589 60.6578C255.759 60.3818 256.182 60.3624 256.182 60.3624C256.182 60.3624 256.605 60.3818 256.775 60.6578C256.945 60.929 257.315 62.6434 257.684 63.2681C257.689 63.273 257.694 63.2827 257.699 63.2875C257.699 63.2875 257.699 63.2923 257.704 63.2923C258.511 65.0697 260.31 66.3046 262.396 66.3046C264.195 66.3046 265.775 65.3845 266.694 63.9994C266.844 63.796 266.976 63.549 267.088 63.2827C267.209 63.0115 267.311 62.7354 267.384 62.44C267.549 61.8734 267.671 61.3261 267.773 60.9871V58.9047C267.511 58.8078 267.267 58.6674 267.088 58.4591ZM249.964 65.6073C247.508 65.6073 245.515 63.6217 245.515 61.176C245.515 58.7303 247.508 56.7447 249.964 56.7447C252.419 56.7447 254.412 58.7303 254.412 61.176C254.412 63.6265 252.424 65.6073 249.964 65.6073ZM262.386 65.6073C259.931 65.6073 257.937 63.6217 257.937 61.176C257.937 58.7303 259.931 56.7447 262.386 56.7447C264.841 56.7447 266.835 58.7303 266.835 61.176C266.835 63.6265 264.841 65.6073 262.386 65.6073Z" fill="#020516"/>
</svg>
