<svg width="78" height="79" viewBox="0 0 78 79" fill="none" xmlns="http://www.w3.org/2000/svg">
<circle cx="48.0005" cy="30" r="30" fill="#5BD460" fill-opacity="0.2"/>
<g clip-path="url(#clip0_25_36)">
<path d="M44.688 66.1094C45.1615 66.1094 45.5474 66.4944 45.5474 66.9688H47.2661C47.2661 65.8498 46.5451 64.9045 45.5474 64.5487V62.6719H43.8286V64.5487C42.8309 64.9045 42.1099 65.8498 42.1099 66.9688C42.1099 68.3902 43.2666 69.5469 44.688 69.5469C45.1615 69.5469 45.5474 69.9319 45.5474 70.4062C45.5474 70.8806 45.1615 71.2656 44.688 71.2656C44.2145 71.2656 43.8286 70.8806 43.8286 70.4062H42.1099C42.1099 71.5252 42.8309 72.4705 43.8286 72.8263V74.7031H45.5474V72.8263C46.5451 72.4705 47.2661 71.5252 47.2661 70.4062C47.2661 68.9848 46.1094 67.8281 44.688 67.8281C44.2145 67.8281 43.8286 67.4431 43.8286 66.9688C43.8286 66.4944 44.2145 66.1094 44.688 66.1094Z" fill="#5BD560"/>
<path d="M44.688 59.2344C41.718 59.2344 39.0668 60.6137 37.3326 62.763L31.7974 61.1663V59.5266C32.7444 58.7849 33.4843 57.7958 33.9235 56.6562H34.3755C36.2713 56.6562 37.813 55.1145 37.813 53.2188V47.2031C37.813 41.5166 33.187 36.8906 27.5005 36.8906C21.814 36.8906 17.188 41.5166 17.188 47.2031V53.2188C17.188 55.1145 18.7297 56.6562 20.6255 56.6562H21.1334C21.5785 57.7477 22.2961 58.699 23.2036 59.4286V61.1663L16.3802 63.1342C13.8201 63.8733 12.0317 66.2495 12.0317 68.9144V72.9844H36.2781C37.8465 76.0403 41.0228 78.1406 44.688 78.1406C49.9001 78.1406 54.1411 73.8996 54.1411 68.6875C54.1411 63.4754 49.9001 59.2344 44.688 59.2344ZM33.1517 63.3456L31.4519 67.3116L28.7861 65.1795L31.1863 62.7793L33.1517 63.3456ZM27.5005 64.0348L24.9224 61.4567V60.4401C25.7276 60.7684 26.6067 60.9531 27.5297 60.9531H27.681C28.5266 60.9531 29.3327 60.789 30.0786 60.502V61.4567L27.5005 64.0348ZM34.3755 54.9375H34.3411C34.3635 54.7141 34.3755 54.4872 34.3755 54.2577V51.5C35.3234 51.5 36.0942 52.2709 36.0942 53.2188C36.0942 54.1666 35.3234 54.9375 34.3755 54.9375ZM20.6255 54.9375C19.6776 54.9375 18.9067 54.1666 18.9067 53.2188C18.9067 52.2709 19.6776 51.5 20.6255 51.5H20.6367C20.6349 51.5473 20.6255 51.592 20.6255 51.6392V54.0781C20.6255 54.3695 20.6496 54.6556 20.6856 54.9375H20.6255ZM21.0277 49.7812H20.6255C19.9964 49.7812 19.4146 49.9634 18.9067 50.2591V47.2031C18.9067 42.4645 22.7619 38.6094 27.5005 38.6094C32.2391 38.6094 36.0942 42.4645 36.0942 47.2031V50.2591C35.5863 49.9634 35.0046 49.7812 34.3755 49.7812H33.5161H31.7974C29.2115 49.7812 26.648 48.9262 24.5786 47.375L24.2185 47.1052L23.7914 47.2478C22.5213 47.6706 21.5416 48.6099 21.0277 49.7812ZM22.3442 54.0781V51.6392C22.3442 50.5263 22.9733 49.5269 23.947 49.0387C26.2381 50.6286 29.0061 51.5 31.7974 51.5H32.6567V54.2577C32.6567 57.0017 30.4249 59.2344 27.681 59.2344H27.5297C24.6706 59.2344 22.3442 56.9218 22.3442 54.0781ZM23.8138 62.7784L26.214 65.1787L23.5482 67.3108L21.8484 63.3448L23.8138 62.7784ZM35.2349 68.6875C35.2349 69.5821 35.3681 70.4449 35.601 71.2656H18.9067V67.8281H17.188V71.2656H13.7505V68.9144C13.7505 67.0117 15.0275 65.3145 16.8563 64.7859L20.1846 63.8252L22.8581 70.0634L27.5005 66.3509L32.142 70.0642L34.8155 63.826L36.3392 64.2652C35.6362 65.586 35.2349 67.0899 35.2349 68.6875ZM44.688 76.4219C40.4238 76.4219 36.9536 72.9526 36.9536 68.6875C36.9536 64.4224 40.4238 60.9531 44.688 60.9531C48.9522 60.9531 52.4224 64.4224 52.4224 68.6875C52.4224 72.9526 48.9522 76.4219 44.688 76.4219Z" fill="#5BD560"/>
<path d="M51.563 31.7344H41.2505C39.8291 31.7344 38.6724 32.8911 38.6724 34.3125V41.1875C38.6724 42.6089 39.8291 43.7656 41.2505 43.7656H42.1099V47.9499L48.3859 43.7656H51.563C52.9844 43.7656 54.1411 42.6089 54.1411 41.1875V34.3125C54.1411 32.8911 52.9844 31.7344 51.563 31.7344ZM52.4224 41.1875C52.4224 41.661 52.0365 42.0469 51.563 42.0469H47.8651L43.8286 44.7376V42.0469H41.2505C40.777 42.0469 40.3911 41.661 40.3911 41.1875V34.3125C40.3911 33.839 40.777 33.4531 41.2505 33.4531H51.563C52.0365 33.4531 52.4224 33.839 52.4224 34.3125V41.1875Z" fill="#5BD560"/>
<path d="M46.4067 36.5349L44.4362 34.5643L43.221 35.7795L45.5474 38.1058V40.3282H47.2661V38.1058L49.5924 35.7795L48.3773 34.5643L46.4067 36.5349Z" fill="#5BD560"/>
<path d="M12.8911 43.7656H13.7505C15.1719 43.7656 16.3286 42.6089 16.3286 41.1875V34.3125C16.3286 32.8911 15.1719 31.7344 13.7505 31.7344H3.43799C2.01658 31.7344 0.859863 32.8911 0.859863 34.3125V41.1875C0.859863 42.6089 2.01658 43.7656 3.43799 43.7656H6.6151L12.8911 47.9499V43.7656ZM11.1724 44.7376L7.13588 42.0469H3.43799C2.96447 42.0469 2.57861 41.661 2.57861 41.1875V34.3125C2.57861 33.839 2.96447 33.4531 3.43799 33.4531H13.7505C14.224 33.4531 14.6099 33.839 14.6099 34.3125V41.1875C14.6099 41.661 14.224 42.0469 13.7505 42.0469H11.1724V44.7376Z" fill="#5BD560"/>
<path d="M9.45361 37.5472L8.26596 35.1719H6.01611V40.3281H7.73486V37.9528L8.92252 40.3281H11.1724V35.1719H9.45361V37.5472Z" fill="#5BD560"/>
<path d="M26.6411 27.4375C26.6411 26.964 27.027 26.5781 27.5005 26.5781C27.974 26.5781 28.3599 26.964 28.3599 27.4375V27.5845C28.3599 27.8139 28.2705 28.0305 28.1081 28.1929L26.6411 29.6598V31.7344H28.3599V30.3714L29.3232 29.408C29.8105 28.9216 30.0786 28.2737 30.0786 27.5845V27.4375C30.0786 26.0161 28.9219 24.8594 27.5005 24.8594C26.0791 24.8594 24.9224 26.0161 24.9224 27.4375V28.2969H26.6411V27.4375Z" fill="#5BD560"/>
<path d="M28.3599 33.4531H26.6411V35.1719H28.3599V33.4531Z" fill="#5BD560"/>
</g>
<defs>
<clipPath id="clip0_25_36">
<rect width="55" height="55" fill="white" transform="translate(0.000488281 24)"/>
</clipPath>
</defs>
</svg>
