<svg width="90" height="81" viewBox="0 0 90 81" fill="none" xmlns="http://www.w3.org/2000/svg">
<rect opacity="0.1" x="30.0004" width="60" height="60" rx="30" fill="#FF9000"/>
<g clip-path="url(#clip0_2042_3)">
<path d="M48.5134 46.7325V44.7075L56.0007 44.3597V40.603L48.5134 40.2552V38.6968H42.659V31.8255C42.659 30.2683 41.3919 29 39.8366 29H16.1622C14.605 29 13.3378 30.268 13.3378 31.8255V38.6968H7.48575V40.2552L0.000396729 40.603V44.3597L7.48575 44.7075V46.7325H13.3381V51.0981H7.48575V52.6533L0.000396729 53.002V56.7567L7.48575 57.1065V59.1315H13.3381V63.9649H7.48575V65.5232L0.000396729 65.8719V69.6277L7.48575 69.9764V72.0014H13.3381V77.9394C13.3381 79.4977 14.6052 80.7618 16.1625 80.7618H39.8366C41.3919 80.7618 42.659 79.4977 42.659 77.9394V72.0014H48.5134V69.9764L56.0007 69.6277V65.8719L48.5134 65.5232V63.9649H42.659V59.1315H48.5134V57.1065L56.0007 56.7567V53.002L48.5134 52.6533V51.0981H42.659V46.7325H48.5134ZM54.5158 67.2872V68.2085L47.0285 68.5571V70.5137H42.8928V65.4486H47.0285V66.9394L54.5158 67.2872ZM47.0285 55.6943V57.6478H42.8928V52.5818H47.0285V54.0737L54.5158 54.4224V55.3467L47.0285 55.6943ZM54.5158 42.0211V42.9435L47.0285 43.2922V45.2477H42.8928V40.1806H47.0285V41.6713L54.5158 42.0211ZM39.8366 79.275H16.1622C15.4234 79.275 14.8227 78.6742 14.8227 77.9374V31.8255C14.8227 31.0848 15.4234 30.484 16.1622 30.484H39.8364C40.5731 30.484 41.1739 31.0848 41.1739 31.8255V77.9374C41.1742 78.6742 40.5743 79.275 39.8366 79.275ZM1.48299 68.2085V67.2872L8.97031 66.9385V65.4477H13.1072V70.5129H8.97031V68.5563L1.48299 68.2085ZM1.48299 55.3445V54.4204L8.97031 54.0717V52.5798H13.1072V57.6458H8.97031V55.6923L1.48299 55.3445ZM1.48299 42.9435V42.0211L8.97031 41.6725V40.1817H13.1072V45.2488H8.97031V43.2933L1.48299 42.9435Z" fill="#FFBA60" stroke="#FFBA60" stroke-width="0.5"/>
<path d="M18.1674 35.8335C18.1674 34.9132 18.9135 34.1671 19.8339 34.1671C20.7543 34.1671 21.5004 34.9132 21.5004 35.8335C21.5004 36.7539 20.7543 37.5 19.8339 37.5C18.9135 37.5 18.1674 36.7539 18.1674 35.8335Z" fill="#FFBA60" stroke="#FFBA60" stroke-width="7"/>
</g>
<defs>
<clipPath id="clip0_2042_3">
<rect width="56" height="56" fill="white" transform="translate(0.000396729 25)"/>
</clipPath>
</defs>
</svg>
