<svg width="73" height="77" viewBox="0 0 73 77" fill="none" xmlns="http://www.w3.org/2000/svg">
<rect opacity="0.1" x="13.0004" width="60" height="60" rx="30" fill="#FF00C6"/>
<g clip-path="url(#clip0_2042_2)">
<path d="M48.5337 34.6C46.6218 34.6 45.0671 36.1847 45.0671 38.1333C45.0671 40.0819 46.6219 41.6666 48.5337 41.6666C50.4456 41.6666 52.0004 40.082 52.0004 38.1333C52.0004 36.1847 50.4456 34.6 48.5337 34.6ZM48.5337 39.9C47.5778 39.9 46.8004 39.1077 46.8004 38.1333C46.8004 37.159 47.5777 36.3666 48.5337 36.3666C49.4898 36.3666 50.2671 37.1589 50.2671 38.1333C50.267 39.1077 49.4897 39.9 48.5337 39.9Z" fill="#C556AC"/>
<path d="M3.467 63.75C1.55519 63.75 0.000366211 65.3347 0.000366211 67.2833C0.000366211 69.2319 1.55519 70.8166 3.467 70.8166C5.37891 70.8166 6.93363 69.2319 6.93363 67.2833C6.93363 65.3347 5.37891 63.75 3.467 63.75ZM3.467 69.05C2.51109 69.05 1.73363 68.2577 1.73363 67.2833C1.73363 66.3089 2.51099 65.5166 3.467 65.5166C4.4229 65.5166 5.20037 66.3089 5.20037 67.2833C5.20037 68.2577 4.42301 69.05 3.467 69.05Z" fill="#C556AC"/>
<path d="M46.8533 35.7166L39.3766 32.0376C38.9449 31.8246 38.4276 32.0101 38.2196 32.4492C38.0116 32.8882 38.1927 33.4165 38.6235 33.6285L46.1002 37.3075C46.2216 37.3676 46.3498 37.3958 46.4763 37.3958C46.7987 37.3958 47.1081 37.2121 47.2571 36.8959C47.4651 36.4568 47.284 35.9286 46.8533 35.7166Z" fill="#C556AC"/>
<path d="M39.0004 69.9332C37.0885 69.9332 35.5337 71.518 35.5337 73.4665C35.5337 75.4151 37.0885 77 39.0004 77C40.9123 77 42.467 75.4152 42.467 73.4666C42.467 71.5181 40.9123 69.9332 39.0004 69.9332ZM39.0004 75.2332C38.0445 75.2332 37.267 74.4409 37.267 73.4665C37.267 72.4921 38.0445 71.6999 39.0004 71.6999C39.9563 71.6999 40.7337 72.4922 40.7337 73.4666C40.7337 74.441 39.9563 75.2332 39.0004 75.2332Z" fill="#C556AC"/>
<path d="M37.3199 71.05L29.8432 67.3709C29.4116 67.158 28.8942 67.3427 28.6862 67.7826C28.4782 68.2216 28.6593 68.7499 29.0901 68.9619L36.5668 72.6409C36.6882 72.701 36.8165 72.7292 36.9429 72.7292C37.2653 72.7292 37.5747 72.5455 37.7238 72.2292C37.9317 71.7901 37.7507 71.262 37.3199 71.05Z" fill="#C556AC"/>
<path d="M26.0004 47.85C24.0884 47.85 22.5337 49.4347 22.5337 51.3833C22.5337 53.332 24.0885 54.9166 26.0004 54.9166C27.9123 54.9166 29.467 53.3319 29.467 51.3833C29.467 49.4347 27.9123 47.85 26.0004 47.85ZM26.0004 53.15C25.0445 53.15 24.267 52.3577 24.267 51.3833C24.267 50.409 25.0444 49.6166 26.0004 49.6166C26.9563 49.6166 27.7337 50.4089 27.7337 51.3833C27.7337 52.3577 26.9563 53.15 26.0004 53.15Z" fill="#C556AC"/>
<path d="M24.4767 49.0654L18.7334 44.503C18.3555 44.2053 17.8113 44.2715 17.5166 44.6567C17.2227 45.0419 17.2895 45.5965 17.6674 45.8969L23.4107 50.4594C23.5694 50.5848 23.7566 50.6458 23.9429 50.6458C24.2012 50.6458 24.456 50.5292 24.6276 50.3058C24.9214 49.9205 24.8546 49.3657 24.4767 49.0654Z" fill="#C556AC"/>
<path d="M41.6003 46.9668C36.344 46.9668 32.067 51.326 32.067 56.6835C32.067 62.0409 36.344 66.4002 41.6003 66.4002C46.8567 66.4002 51.1337 62.0409 51.1337 56.6835C51.1337 51.326 46.8567 46.9668 41.6003 46.9668ZM41.6003 64.6334C37.2991 64.6334 33.8003 61.0674 33.8003 56.6834C33.8003 52.2994 37.2991 48.7334 41.6003 48.7334C45.9016 48.7334 49.4003 52.2994 49.4003 56.6834C49.4003 61.0674 45.9016 64.6334 41.6003 64.6334Z" fill="#C556AC"/>
<path d="M41.6003 50.5C39.6884 50.5 38.1337 52.0847 38.1337 54.0333C38.1337 55.982 39.6885 57.5666 41.6003 57.5666C43.5123 57.5666 45.067 55.9819 45.067 54.0333C45.067 52.0847 43.5123 50.5 41.6003 50.5ZM41.6003 55.8C40.6444 55.8 39.867 55.0077 39.867 54.0333C39.867 53.059 40.6443 52.2666 41.6003 52.2666C42.5562 52.2666 43.3337 53.0589 43.3337 54.0333C43.3337 55.0077 42.5562 55.8 41.6003 55.8Z" fill="#C556AC"/>
<path d="M44.1145 59.3333H39.0862C37.6051 59.3333 36.4004 60.5284 36.4004 61.9965V64.325C36.4004 64.6403 36.565 64.9318 36.8328 65.09C38.2854 65.9468 39.9337 66.3999 41.6004 66.3999C43.267 66.3999 44.9153 65.9468 46.3679 65.09C46.6357 64.9327 46.8003 64.6403 46.8003 64.3259V61.9974C46.8003 60.5284 45.5957 59.3333 44.1145 59.3333ZM45.067 63.7985C42.9099 64.8938 40.2908 64.8938 38.1336 63.7985V61.9974C38.1336 61.5027 38.5609 61.0999 39.0861 61.0999H44.1144C44.6396 61.0999 45.0669 61.5027 45.0669 61.9974V63.7985H45.067Z" fill="#C556AC"/>
<path d="M20.8004 57.5668C15.544 57.5668 11.267 61.926 11.267 67.2835C11.267 72.6409 15.544 77.0001 20.8004 77.0001C26.0567 77.0001 30.3337 72.6408 30.3337 67.2834C30.3337 61.9259 26.0567 57.5668 20.8004 57.5668ZM20.8004 75.2334C16.4991 75.2334 13.0004 71.6674 13.0004 67.2834C13.0004 62.8994 16.4991 59.3334 20.8004 59.3334C25.1016 59.3334 28.6004 62.8994 28.6004 67.2834C28.6004 71.6674 25.1016 75.2334 20.8004 75.2334Z" fill="#C556AC"/>
<path d="M20.8004 61.1C18.8885 61.1 17.3337 62.6847 17.3337 64.6333C17.3337 66.582 18.8886 68.1666 20.8004 68.1666C22.7122 68.1666 24.267 66.5819 24.267 64.6333C24.267 62.6847 22.7123 61.1 20.8004 61.1ZM20.8004 66.4C19.8445 66.4 19.067 65.6077 19.067 64.6333C19.067 63.659 19.8444 62.8666 20.8004 62.8666C21.7563 62.8666 22.5337 63.6589 22.5337 64.6333C22.5337 65.6077 21.7563 66.4 20.8004 66.4Z" fill="#C556AC"/>
<path d="M23.3146 69.9332H18.2862C16.8051 69.9332 15.6004 71.1284 15.6004 72.5965V74.925C15.6004 75.2403 15.765 75.5318 16.0328 75.69C17.4854 76.5468 19.1337 77 20.8004 77C22.467 77 24.1154 76.5468 25.5679 75.69C25.8358 75.5327 26.0004 75.2404 26.0004 74.9259V72.5974C26.0004 71.1284 24.7958 69.9332 23.3146 69.9332ZM24.267 74.3985C22.1098 75.4938 19.4908 75.4938 17.3337 74.3985V72.5974C17.3337 72.1027 17.7609 71.6999 18.2861 71.6999H23.3145C23.8396 71.6999 24.2669 72.1027 24.2669 72.5974V74.3985H24.267Z" fill="#C556AC"/>
<path d="M9.53373 35.4833C4.27737 35.4833 0.000366211 39.8425 0.000366211 45.2C0.000366211 50.5574 4.27737 54.9167 9.53373 54.9167C14.7901 54.9167 19.0671 50.5574 19.0671 45.2C19.067 39.8425 14.79 35.4833 9.53373 35.4833ZM9.53373 53.15C5.23246 53.15 1.73373 49.584 1.73373 45.2C1.73373 40.816 5.23246 37.25 9.53373 37.25C13.835 37.25 17.3337 40.816 17.3337 45.2C17.3337 49.584 13.835 53.15 9.53373 53.15Z" fill="#C556AC"/>
<path d="M9.53373 39.0167C7.62182 39.0167 6.0671 40.6014 6.0671 42.55C6.0671 44.4986 7.62192 46.0833 9.53373 46.0833C11.4456 46.0833 13.0004 44.4986 13.0004 42.55C13.0004 40.6014 11.4455 39.0167 9.53373 39.0167ZM9.53373 44.3167C8.57783 44.3167 7.80037 43.5244 7.80037 42.55C7.80037 41.5756 8.57773 40.7833 9.53373 40.7833C10.4896 40.7833 11.2671 41.5756 11.2671 42.55C11.2671 43.5244 10.4896 44.3167 9.53373 44.3167Z" fill="#C556AC"/>
<path d="M12.0479 47.85H7.01956C5.53847 47.85 4.33374 49.0452 4.33374 50.5132V52.8417C4.33374 53.157 4.49837 53.4485 4.76619 53.6067C6.21874 54.4635 7.8671 54.9167 9.53374 54.9167C11.2004 54.9167 12.8487 54.4635 14.3013 53.6067C14.5691 53.4494 14.7337 53.157 14.7337 52.8426V50.5142C14.7337 49.0452 13.529 47.85 12.0479 47.85ZM13.0004 52.3152C10.8433 53.4105 8.22419 53.4105 6.06701 52.3152V50.5142C6.06701 50.0195 6.49428 49.6167 7.01946 49.6167H12.0478C12.573 49.6167 13.0003 50.0195 13.0003 50.5142V52.3152H13.0004Z" fill="#C556AC"/>
<path d="M30.3337 24C25.0774 24 20.8004 28.3592 20.8004 33.7167C20.8004 39.0742 25.0774 43.4334 30.3337 43.4334C35.5901 43.4334 39.8671 39.0742 39.8671 33.7167C39.867 28.3592 35.59 24 30.3337 24ZM30.3337 41.6667C26.0325 41.6667 22.5337 38.1007 22.5337 33.7167C22.5337 29.3327 26.0325 25.7667 30.3337 25.7667C34.635 25.7667 38.1337 29.3327 38.1337 33.7167C38.1337 38.1007 34.635 41.6667 30.3337 41.6667Z" fill="#C556AC"/>
<path d="M30.3337 27.5332C28.4218 27.5332 26.8671 29.1179 26.8671 31.0665C26.8671 33.0151 28.4219 34.5998 30.3337 34.5998C32.2455 34.5998 33.8004 33.0152 33.8004 31.0666C33.8004 29.118 32.2455 27.5332 30.3337 27.5332ZM30.3337 32.8332C29.3778 32.8332 28.6004 32.0409 28.6004 31.0665C28.6004 30.0922 29.3777 29.2998 30.3337 29.2998C31.2897 29.2998 32.0671 30.0921 32.0671 31.0665C32.067 32.0409 31.2896 32.8332 30.3337 32.8332Z" fill="#C556AC"/>
<path d="M32.8479 36.3667H27.8196C26.3385 36.3667 25.1337 37.5619 25.1337 39.0299V41.3584C25.1337 41.6737 25.2984 41.9652 25.5662 42.1234C27.0187 42.9802 28.6671 43.4334 30.3337 43.4334C32.0004 43.4334 33.6487 42.9802 35.1013 42.1234C35.3691 41.9662 35.5337 41.6737 35.5337 41.3594V39.0309C35.5337 37.5618 34.329 36.3667 32.8479 36.3667ZM33.8004 40.8319C31.6433 41.9272 29.0242 41.9272 26.867 40.8319V39.0309C26.867 38.5362 27.2943 38.1334 27.8195 38.1334H32.8478C33.373 38.1334 33.8003 38.5362 33.8003 39.0309V40.8319H33.8004Z" fill="#C556AC"/>
<path d="M22.3265 33.1416C22.0155 32.7724 21.4685 32.7282 21.1045 33.0453L15.0985 38.2835C14.7345 38.6006 14.6921 39.158 15.0032 39.529C15.1748 39.7331 15.4174 39.8382 15.6618 39.8382C15.8612 39.8382 16.0613 39.7685 16.2252 39.6253L22.2312 34.3871C22.5953 34.07 22.6377 33.5126 22.3265 33.1416Z" fill="#C556AC"/>
<path d="M41.427 47.3209L36.227 40.2542C35.9401 39.8629 35.3967 39.786 35.0137 40.0775C34.6306 40.3699 34.5535 40.9237 34.8403 41.3133L40.0403 48.38C40.211 48.6114 40.471 48.7333 40.7345 48.7333C40.9147 48.7333 41.0976 48.6758 41.2536 48.5565C41.6367 48.2642 41.7139 47.7104 41.427 47.3209Z" fill="#C556AC"/>
<path d="M34.3143 59.6045C34.0274 59.2141 33.484 59.1355 33.1009 59.4278L28.2598 63.1281C27.8767 63.4205 27.7996 63.9743 28.0864 64.3639C28.2571 64.5953 28.5171 64.7172 28.7806 64.7172C28.9617 64.7172 29.1437 64.6589 29.2998 64.5405L34.1409 60.8402C34.524 60.548 34.6012 59.994 34.3143 59.6045Z" fill="#C556AC"/>
<path d="M12.1337 66.4H6.067C5.58864 66.4 5.20036 66.7948 5.20036 67.2833C5.20036 67.7718 5.58864 68.1666 6.067 68.1666H12.1336C12.612 68.1666 13.0003 67.7718 13.0003 67.2833C13.0003 66.7948 12.6121 66.4 12.1337 66.4Z" fill="#C556AC"/>
<path d="M9.53372 24C7.62181 24 6.06699 25.5847 6.06699 27.5333C6.06699 29.482 7.62181 31.0666 9.53362 31.0666C11.4455 31.0666 13.0003 29.4819 13.0003 27.5333C13.0004 25.5847 11.4455 24 9.53372 24ZM9.53372 29.3C8.57781 29.3 7.80035 28.5077 7.80035 27.5333C7.80035 26.559 8.57771 25.7666 9.53372 25.7666C10.4896 25.7666 11.2671 26.5589 11.2671 27.5333C11.267 28.5077 10.4896 29.3 9.53372 29.3Z" fill="#C556AC"/>
<path d="M9.53373 29.3C9.05537 29.3 8.6671 29.6949 8.6671 30.1833V36.3666C8.6671 36.8551 9.05537 37.2499 9.53373 37.2499C10.0121 37.2499 10.4004 36.8551 10.4004 36.3666V30.1833C10.4004 29.6949 10.0121 29.3 9.53373 29.3Z" fill="#C556AC"/>
</g>
<defs>
<clipPath id="clip0_2042_2">
<rect width="52" height="53" fill="white" transform="translate(0.000366211 24)"/>
</clipPath>
</defs>
</svg>
